<?xml version="1.0" encoding="utf-8"?>
<!-- Generator: Adobe Illustrator 17.0.0, SVG Export Plug-In . SVG Version: 6.00 Build 0)  -->
<!DOCTYPE svg PUBLIC "-//W3C//DTD SVG 1.1//EN" "http://www.w3.org/Graphics/SVG/1.1/DTD/svg11.dtd">
<svg version="1.1" id="Layer_1" xmlns="http://www.w3.org/2000/svg" xmlns:xlink="http://www.w3.org/1999/xlink" x="0px" y="0px"
	 width="229.116px" height="181.416px" viewBox="0 0 229.116 181.416" enable-background="new 0 0 229.116 181.416"
	 xml:space="preserve">
<g display="none">
	<g display="inline">
		<defs>
			<rect id="SVGID_1_" x="11" y="-12.792" width="210.396" height="210.396"/>
		</defs>
		<clipPath id="SVGID_2_">
			<use xlink:href="#SVGID_1_"  overflow="visible"/>
		</clipPath>
		<g clip-path="url(#SVGID_2_)">
			<defs>
				<rect id="SVGID_3_" x="11" y="-12.792" width="210.396" height="210.396"/>
			</defs>
			<clipPath id="SVGID_4_">
				<use xlink:href="#SVGID_3_"  overflow="visible"/>
			</clipPath>
			<path clip-path="url(#SVGID_4_)" fill="#EA5843" d="M119.719,121.487c-28.409,0-34.363-36.155-34.419-36.522
				c-0.209-1.342,0.565-2.645,1.847-3.1c17.564-6.242,35.449-25.567,40.609-35.303c0.048-0.252,0.126-0.501,0.237-0.742
				c0.126-0.249,0.277-0.469,0.451-0.663c0.623-1.43,0.9-2.57,0.75-3.32c-0.324-1.619-0.892-2.768-1.509-3.08
				c-0.497-0.253-1.263-0.012-1.484,0.102c-0.793,0.383-1.737,0.379-2.518-0.019c-0.782-0.391-1.362-1.113-1.532-1.971
				c-0.15-0.703-1.772-7.086-10.509-7.086c-9.364,0-12.159,7.434-12.188,7.509c-0.399,1.101-1.433,1.844-2.605,1.867
				c-3.036,0.059-5.179,0.691-5.732,1.686c-0.549,0.992,0.209,2.846,0.549,3.408c0.802,1.342,0.367,3.079-0.971,3.884
				c-1.346,0.818-3.076,0.376-3.885-0.971c-0.301-0.501-2.878-5.022-0.644-9.061c1.445-2.613,4.402-4.125,8.804-4.512
				c1.757-3.179,6.518-9.472,16.672-9.472c8.709,0,13.25,4.86,15.128,8.875c0.995-0.051,2.172,0.083,3.34,0.648
				c2.361,1.125,3.916,3.509,4.627,7.079c0.276,1.381,0.039,3.091-0.623,5.045c13.565,8.145,15.689,24.406,15.776,25.133
				C149.865,73.354,148.476,121.487,119.719,121.487 M91.329,86.315c1.626,7.264,8.252,29.519,28.39,29.519
				c23.253,0,24.516-44.111,24.533-44.652c-0.032,0-1.927-13.462-12.571-20.261C124.65,63.061,107.136,79.749,91.329,86.315"/>
			<path clip-path="url(#SVGID_4_)" fill="#EA5843" d="M141.495,126.478c-4.54,0-10.005-1.777-16.004-7.319
				c-1.149-1.058-1.22-2.851-0.163-3.995c1.061-1.168,2.846-1.225,3.999-0.158c5.969,5.511,11.742,7.106,17.118,4.746
				c10.218-4.478,17.861-22.559,17.861-35.741c0-20.237-7.706-43.74-14.963-55.58c-6.688-10.944-19.526-9.182-20.079-9.096
				c-0.623,0.076-1.2-0.016-1.721-0.284c-9.017-4.639-17.683-5.666-25.768-3.06c-15.188,4.923-23.498,21.046-23.577,21.208
				C70.847,49.216,67.76,63.156,67.76,84.01c0,13.182,7.635,31.263,17.852,35.741c5.393,2.352,11.149,0.757,17.118-4.746
				c1.137-1.067,2.93-1.004,4,0.158c1.058,1.145,0.986,2.937-0.163,3.995c-9.676,8.946-17.983,8.061-23.222,5.78
				c-12.708-5.567-21.247-25.655-21.247-40.929c0-21.975,3.339-36.795,11.16-49.567c0.265-0.549,9.365-18.196,26.771-23.838
				c9.326-3.012,19.187-2.002,29.329,3.024c3.759-0.339,17.214-0.584,24.818,11.848c7.84,12.811,15.784,37.032,15.784,58.532
				c0,15.274-8.535,35.362-21.247,40.929C146.715,125.807,144.283,126.478,141.495,126.478"/>
			<path clip-path="url(#SVGID_4_)" fill="#EA5843" d="M151.326,177.232c-1.563,0-2.827-1.263-2.827-2.826v-34
				c0-1.563,1.264-2.826,2.827-2.826s2.827,1.263,2.827,2.826v34C154.153,175.97,152.889,177.232,151.326,177.232"/>
			<path clip-path="url(#SVGID_4_)" fill="#EA5843" d="M178.141,177.232H54.448c-1.564,0-2.831-1.263-2.831-2.826v-15.255
				c0-18.255,15.294-23.301,23.38-23.411h82.551c8.125,0.11,23.419,5.156,23.419,23.411v15.255
				C180.967,175.969,179.704,177.232,178.141,177.232 M57.278,171.579h118.036v-12.428c0-17.3-17.078-17.742-17.805-17.758H75.036
				c-0.679,0.016-17.758,0.56-17.758,17.758V171.579z"/>
			<path clip-path="url(#SVGID_4_)" fill="#EA5843" d="M81.254,177.232c-1.563,0-2.831-1.263-2.831-2.826v-34
				c0-1.563,1.268-2.826,2.831-2.826s2.83,1.263,2.83,2.826v34C84.084,175.97,82.817,177.232,81.254,177.232"/>
			<path clip-path="url(#SVGID_4_)" fill="#EA5843" d="M138.89,157.682H93.698c-1.563,0-2.83-1.263-2.83-2.827v-14.449
				c0-1.563,1.267-2.826,2.83-2.826c1.564,0,2.831,1.263,2.831,2.826v11.623h39.535v-12.294c0-1.562,1.264-2.826,2.826-2.826
				c1.563,0,2.827,1.263,2.827,2.826v15.121C141.717,156.419,140.453,157.682,138.89,157.682"/>
		</g>
	</g>
</g>
<g display="none">
	<g display="inline">
		<defs>
			<rect id="SVGID_5_" x="9.72" y="-14.99" width="213.396" height="213.396"/>
		</defs>
		<clipPath id="SVGID_6_">
			<use xlink:href="#SVGID_5_"  overflow="visible"/>
		</clipPath>
		<g clip-path="url(#SVGID_6_)">
			<defs>
				<rect id="SVGID_7_" x="9.72" y="-14.99" width="213.396" height="213.396"/>
			</defs>
			<clipPath id="SVGID_8_">
				<use xlink:href="#SVGID_7_"  overflow="visible"/>
			</clipPath>
			<path clip-path="url(#SVGID_8_)" fill="#EA5843" d="M115.502,176.908c-47.066,0-85.36-38.294-85.36-85.36
				s38.294-85.36,85.36-85.36s85.36,38.294,85.36,85.36S162.568,176.908,115.502,176.908 M115.502,13.028
				c-43.298,0-78.52,35.222-78.52,78.52c0,43.297,35.222,78.529,78.52,78.529c43.297,0,78.529-35.231,78.529-78.529
				C194.031,48.25,158.799,13.028,115.502,13.028"/>
			<path clip-path="url(#SVGID_8_)" fill="#EA5843" d="M113.141,131.306H90.464V46.571h34.268c21.561,0,33.524,13.08,33.524,30.404
				s-11.963,30.032-33.524,30.032h-11.591V131.306z M123.606,88.07c7.728,0,11.84-4.122,11.84-11.095
				c0-6.983-4.112-11.219-11.84-11.219h-10.465V88.07H123.606z"/>
		</g>
	</g>
</g>
<g display="none">
	<g display="inline">
		<defs>
			<rect id="SVGID_9_" x="-5.884" y="-30.792" width="243" height="243"/>
		</defs>
		<clipPath id="SVGID_10_">
			<use xlink:href="#SVGID_9_"  overflow="visible"/>
		</clipPath>
		<g clip-path="url(#SVGID_10_)">
			<defs>
				<rect id="SVGID_11_" x="-5.884" y="-30.792" width="243" height="243"/>
			</defs>
			<clipPath id="SVGID_12_">
				<use xlink:href="#SVGID_11_"  overflow="visible"/>
			</clipPath>
			<path clip-path="url(#SVGID_12_)" fill="#EA5843" d="M183.441,174.066h-15.568c-1.834,0-3.316-1.482-3.316-3.316v-42.008
				c0-0.362,0.056-0.732,0.177-1.075c0.203-0.592,5.019-14.513,13.252-24.57c7.084-8.668,4.742-24.389,4.714-24.547
				c-0.814-3.246-4.862-21.204,0.916-28.108c1.733-2.069,4.159-3.037,6.928-2.88c5.77,0.357,9.91-0.82,12.382-3.538
				c2.732-3.011,3.76-8.118,3.056-15.222c-9.474,1.39-16.503-2.898-23.366-7.066c-6.279-3.807-12.771-7.747-21.624-7.747
				c-16.884,0-18.856,13.15-19.681,30.339c-0.759,15.527-9.344,28.307-34.048,50.655c-22.32,20.189-29.409,59.642-29.882,66.569
				c-0.32,4.724,7.715,5.89,7.798,5.909l30.359-0.027c12.632,0,21.495-13.716,21.495-21.135c0-6.89-4.65-16.605-14.976-16.605
				c-10.026,0-17.152,12.16-17.222,12.28c-0.916,1.603-2.95,2.13-4.529,1.232c-1.588-0.916-2.144-2.935-1.232-4.528
				c0.362-0.64,9.086-15.615,22.982-15.615c13.531,0,21.606,11.808,21.606,23.236c0,11.179-11.808,27.766-28.126,27.766H84.753
				c-5.376-0.658-14.591-4.187-13.993-12.957c0.5-7.372,8.089-49.372,32.048-71.053c23.177-20.963,31.216-32.58,31.873-46.046
				c0.658-13.712,1.76-36.661,26.311-36.661c10.715,0,18.337,4.63,25.071,8.714c7.408,4.492,13.216,8.044,21.81,5.543
				c0.908-0.255,1.899-0.125,2.695,0.38c0.806,0.509,1.352,1.338,1.509,2.279c1.779,11.025,0.352,19.175-4.231,24.223
				c-3.909,4.288-9.947,6.201-17.727,5.696c-0.787-0.056-1.158,0.213-1.416,0.519c-2.658,3.176-1.278,15.327,0.5,22.542
				c0.176,1.037,2.899,19.069-6.075,30.057c-6.659,8.131-11.022,19.504-11.938,22.015v38.119h12.253
				c1.834,0,3.315,1.481,3.315,3.315C186.756,172.584,185.274,174.066,183.441,174.066"/>
			<path clip-path="url(#SVGID_12_)" fill="#EA5843" d="M149.405,174.066h-33.868c-1.834,0-3.32-1.482-3.32-3.316
				c0-1.834,1.486-3.315,3.32-3.315h33.868c1.835,0,3.316,1.481,3.316,3.315C152.721,172.584,151.24,174.066,149.405,174.066"/>
			<path clip-path="url(#SVGID_12_)" fill="#EA5843" d="M53.987,173.9c-16.1,0-32.817-9.252-33.882-9.854
				c-1.594-0.898-2.163-2.917-1.264-4.52c0.898-1.593,2.931-2.167,4.519-1.259c0.347,0.184,34.891,19.319,48.02,1.12
				c1.07-1.481,3.149-1.806,4.63-0.75c1.486,1.074,1.825,3.149,0.75,4.64C70.995,171.27,62.577,173.9,53.987,173.9"/>
			<path clip-path="url(#SVGID_12_)" fill="#EA5843" d="M148.248,56.411c-3.306,0-5.613-1.278-7.075-2.542
				c-6.891-5.905-5.696-20-5.539-21.588c0.185-1.811,1.704-3.093,3.631-2.968c1.824,0.181,3.158,1.806,2.982,3.631
				c-0.463,4.676,0.009,13.123,3.241,15.892c0.742,0.629,2.065,1.38,4.89,0.634c11.502-2.982,8.113-20.773,8.075-20.954
				c-0.351-1.796,0.815-3.541,2.612-3.898c1.861-0.362,3.547,0.814,3.908,2.611c1.649,8.326,1.075,25.038-12.928,28.668
				C150.657,56.259,149.396,56.411,148.248,56.411"/>
		</g>
	</g>
</g>
<g display="none">
	<g display="inline">
		<defs>
			<rect id="SVGID_13_" x="-10.471" y="-32.792" width="248.529" height="248.529"/>
		</defs>
		<clipPath id="SVGID_14_">
			<use xlink:href="#SVGID_13_"  overflow="visible"/>
		</clipPath>
		<g clip-path="url(#SVGID_14_)">
			<defs>
				<rect id="SVGID_15_" x="-10.471" y="-32.792" width="248.529" height="248.529"/>
			</defs>
			<clipPath id="SVGID_16_">
				<use xlink:href="#SVGID_15_"  overflow="visible"/>
			</clipPath>
			<path clip-path="url(#SVGID_16_)" fill="#EA5843" d="M114.514,130.004c-1.953,0-3.536-1.578-3.536-3.531V13.665
				c0-1.953,1.583-3.537,3.536-3.537c1.953,0,3.536,1.583,3.536,3.537v112.808C118.05,128.426,116.467,130.004,114.514,130.004"/>
			<path clip-path="url(#SVGID_16_)" fill="#EA5843" d="M17.991,172.044c-1.362,0-2.664-0.789-3.241-2.121
				c-0.779-1.785,0.039-3.877,1.83-4.656l97.943-42.651l96.652,42.661c1.785,0.789,2.594,2.88,1.805,4.666
				c-0.79,1.795-2.91,2.593-4.666,1.804l-93.81-41.418l-95.103,41.428C18.943,171.955,18.465,172.044,17.991,172.044"/>
			<path clip-path="url(#SVGID_16_)" fill="#EA5843" d="M114.228,151.024c-17.553,0-28.354-7.763-28.807-8.098
				c-1.569-1.155-1.909-3.355-0.765-4.923c1.134-1.587,3.348-1.953,4.937-0.788c0.093,0.068,9.513,6.747,24.635,6.747
				c15.018,0,23.747-6.698,23.837-6.766c1.519-1.224,3.758-0.938,4.951,0.581c1.213,1.529,0.967,3.739-0.552,4.952
				C142.039,143.064,131.86,151.024,114.228,151.024"/>
			<path clip-path="url(#SVGID_16_)" fill="#EA5843" d="M183.862,72.241h-69.057c-1.953,0-3.536-1.583-3.536-3.536
				c0-1.953,1.583-3.536,3.536-3.536h61.659l-15.239-18.865c-1.055-1.306-1.046-3.181,0.03-4.473l15.081-18.198h-61.531
				c-1.953,0-3.536-1.583-3.536-3.537c0-1.953,1.583-3.536,3.536-3.536h69.057c1.371,0,2.614,0.794,3.197,2.032
				c0.582,1.242,0.403,2.707-0.474,3.758l-18.041,21.765l18.071,22.372c0.858,1.055,1.027,2.515,0.434,3.743
				C186.467,71.457,185.223,72.241,183.862,72.241"/>
		</g>
	</g>
</g>
<g display="none">
	<g display="inline">
		<defs>
			<rect id="SVGID_17_" x="-13.838" y="-36.688" width="258.792" height="258.792"/>
		</defs>
		<clipPath id="SVGID_18_">
			<use xlink:href="#SVGID_17_"  overflow="visible"/>
		</clipPath>
		<g clip-path="url(#SVGID_18_)">
			<defs>
				<rect id="SVGID_19_" x="-13.838" y="-36.688" width="258.792" height="258.792"/>
			</defs>
			<clipPath id="SVGID_20_">
				<use xlink:href="#SVGID_19_"  overflow="visible"/>
			</clipPath>
			<path clip-path="url(#SVGID_20_)" fill="#EA5843" d="M159.268,172.608H36.255c-1.742,0-3.152-1.407-3.152-3.148V93.816
				c0-1.741,1.411-3.153,3.152-3.153c1.741,0,3.153,1.411,3.153,3.153v72.497H156.12v-11.371c0-1.741,1.407-3.148,3.148-3.148
				c1.741,0,3.148,1.407,3.148,3.148v14.519C162.416,171.201,161.009,172.608,159.268,172.608"/>
			<path clip-path="url(#SVGID_20_)" fill="#EA5843" d="M108.224,143.412h-35.25c-1.741,0-3.153-1.407-3.153-3.148V86.472
				c0-1.741,1.411-3.153,3.153-3.153h41.274c1.741,0,3.153,1.411,3.153,3.153c0,1.742-1.411,3.153-3.153,3.153H76.126v47.492h32.097
				c1.741,0,3.152,1.407,3.152,3.148S109.965,143.412,108.224,143.412"/>
			<path clip-path="url(#SVGID_20_)" fill="#EA5843" d="M16.056,96.967c-0.826,0-1.653-0.325-2.273-0.971
				c-1.205-1.254-1.165-3.249,0.092-4.454l81.704-78.397c1.213-1.17,3.143-1.17,4.366,0l57.098,54.895
				c1.258,1.21,1.302,3.202,0.088,4.459c-1.195,1.249-3.2,1.293-4.45,0.088L97.76,19.788l-79.523,76.3
				C17.625,96.678,16.843,96.967,16.056,96.967"/>
			<path clip-path="url(#SVGID_20_)" fill="#EA5843" d="M42.573,71.523c-1.741,0-3.153-1.411-3.153-3.152V26.802
				c0-1.741,1.411-3.153,3.153-3.153c1.741,0,3.153,1.411,3.153,3.153V68.37C45.726,70.111,44.315,71.523,42.573,71.523"/>
			<path clip-path="url(#SVGID_20_)" fill="#EA5843" d="M67.399,47.7c-1.741,0-3.153-1.411-3.153-3.152V26.801
				c0-1.741,1.411-3.153,3.153-3.153s3.153,1.411,3.153,3.153v17.746C70.551,46.289,69.14,47.7,67.399,47.7"/>
			<path clip-path="url(#SVGID_20_)" fill="#EA5843" d="M71.505,29.954H54.981c-1.741,0-3.153-1.411-3.153-3.152
				c0-1.741,1.411-3.153,3.153-3.153h13.371V18.57H41.611v5.079h4.556c1.74,0,3.152,1.411,3.152,3.153
				c0,1.741-1.411,3.152-3.152,3.152h-7.708c-1.741,0-3.153-1.411-3.153-3.152V15.418c0-1.741,1.411-3.153,3.153-3.153h33.047
				c1.741,0,3.152,1.411,3.152,3.153v11.384C74.658,28.543,73.246,29.954,71.505,29.954"/>
			<path clip-path="url(#SVGID_20_)" fill="#EA5843" d="M156.216,120.399c-0.782,0-1.565-0.29-2.18-0.871l-8.75-8.379
				c-0.607-0.581-0.95-1.372-0.968-2.208s0.29-1.644,0.871-2.251l32.766-34.208c0.58-0.603,1.372-0.954,2.208-0.971
				c0.87-0.022,1.643,0.294,2.251,0.875l8.75,8.385c1.256,1.205,1.3,3.202,0.096,4.459l-32.766,34.204
				C157.869,120.074,157.042,120.399,156.216,120.399 M151.925,108.774l4.195,4.018l28.404-29.648l-4.195-4.023L151.925,108.774z"/>
			<path clip-path="url(#SVGID_20_)" fill="#EA5843" d="M204.732,101.286c-0.81,0-1.592-0.312-2.181-0.875l-40.249-38.557
				c-1.258-1.205-1.302-3.202-0.098-4.459l8.97-9.365c0.581-0.603,1.371-0.954,2.207-0.971c0.827,0.061,1.645,0.294,2.251,0.875
				l40.249,38.556c1.258,1.205,1.302,3.202,0.097,4.459l-8.97,9.365c-0.58,0.603-1.371,0.954-2.207,0.972H204.732z M168.941,59.48
				l35.695,34.195l4.608-4.81l-35.694-34.195L168.941,59.48z"/>
			<path clip-path="url(#SVGID_20_)" fill="#EA5843" d="M208.277,86.718c-0.81,0-1.593-0.312-2.182-0.875L176.707,57.69
				c-1.258-1.205-1.302-3.201-0.098-4.459l8.513-8.886c0.581-0.603,1.371-0.954,2.207-0.971c0.81-0.014,1.645,0.294,2.251,0.875
				l29.39,28.153c1.257,1.205,1.301,3.201,0.097,4.459l-8.513,8.886c-0.581,0.603-1.372,0.954-2.208,0.971H208.277z M183.345,55.316
				l24.834,23.796l4.15-4.335L187.496,50.98L183.345,55.316z"/>
			<path clip-path="url(#SVGID_20_)" fill="#EA5843" d="M162.987,144.846c-0.782,0-1.565-0.29-2.18-0.871l-40.24-38.551
				c-1.258-1.205-1.297-3.201-0.098-4.459l8.97-9.365c0.581-0.603,1.371-0.954,2.207-0.971c0.792,0.074,1.645,0.294,2.251,0.875
				l40.24,38.561c0.607,0.581,0.95,1.371,0.968,2.207s-0.29,1.645-0.87,2.251l-8.97,9.357
				C164.641,144.521,163.814,144.846,162.987,144.846 M127.205,103.049l35.685,34.19l4.609-4.801l-35.685-34.199L127.205,103.049z"
				/>
			<path clip-path="url(#SVGID_20_)" fill="#EA5843" d="M149.05,148.539c-0.81,0-1.593-0.308-2.181-0.871l-29.389-28.157
				c-0.603-0.581-0.955-1.372-0.972-2.208c-0.017-0.835,0.299-1.644,0.875-2.251l8.513-8.882c1.213-1.257,3.192-1.302,4.458-0.096
				l29.39,28.149c1.257,1.204,1.301,3.201,0.097,4.459l-8.513,8.89c-0.581,0.607-1.371,0.949-2.207,0.968H149.05z M124.118,117.137
				l24.834,23.796l4.151-4.336L128.27,112.81L124.118,117.137z"/>
		</g>
	</g>
</g>
<g display="none">
	<g display="inline">
		<defs>
			<rect id="SVGID_21_" x="-10.338" y="-35.792" width="248.396" height="248.396"/>
		</defs>
		<clipPath id="SVGID_22_">
			<use xlink:href="#SVGID_21_"  overflow="visible"/>
		</clipPath>
		<g clip-path="url(#SVGID_22_)">
			<defs>
				<rect id="SVGID_23_" x="-10.338" y="-35.792" width="248.396" height="248.396"/>
			</defs>
			<clipPath id="SVGID_24_">
				<use xlink:href="#SVGID_23_"  overflow="visible"/>
			</clipPath>
			<path clip-path="url(#SVGID_24_)" fill="#EA5843" d="M123.297,118.859c-1.571,0-2.844-1.27-2.844-2.841V44.502
				c-0.048-0.187-1.731-13.435,4.654-20.733c2.731-3.114,6.421-4.693,10.984-4.693c5.198,0,9.19,1.67,11.856,4.968
				c5.016,6.194,3.055,15.753,2.976,16.157c-0.326,1.544-1.849,2.489-3.373,2.191c-1.531-0.325-2.515-1.83-2.198-3.365
				c0.016-0.075,1.477-7.349-1.834-11.416c-1.555-1.916-3.991-2.845-7.428-2.845c-2.88,0-5.071,0.896-6.69,2.742
				c-3.897,4.436-3.691,13.503-3.286,16.622l0.024,71.889C126.138,117.589,124.868,118.859,123.297,118.859"/>
			<path clip-path="url(#SVGID_24_)" fill="#EA5843" d="M52.913,118.859c-1.571,0-2.845-1.27-2.845-2.841V44.502
				c-0.047-0.183-1.73-13.432,4.658-20.733c2.726-3.114,6.424-4.693,10.984-4.693c5.203,0,9.19,1.67,11.861,4.968
				c5.015,6.194,3.056,15.753,2.968,16.157c-0.322,1.541-1.825,2.508-3.365,2.191c-1.535-0.325-2.519-1.83-2.199-3.365
				c0.012-0.075,1.472-7.349-1.837-11.416c-1.56-1.916-3.988-2.845-7.428-2.845c-2.888,0-5.083,0.901-6.702,2.75
				c-3.908,4.464-3.69,13.503-3.273,16.61l0.024,71.893C55.758,117.589,54.484,118.859,52.913,118.859"/>
			<path clip-path="url(#SVGID_24_)" fill="#EA5843" d="M123.297,64.088H52.682c-1.57,0-2.844-1.274-2.844-2.845
				c0-1.571,1.274-2.845,2.844-2.845h70.615c1.571,0,2.841,1.274,2.841,2.845C126.138,62.814,124.868,64.088,123.297,64.088"/>
			<path clip-path="url(#SVGID_24_)" fill="#EA5843" d="M123.297,98.911H52.682c-1.57,0-2.844-1.273-2.844-2.844
				s1.274-2.845,2.844-2.845h70.615c1.571,0,2.841,1.274,2.841,2.845S124.868,98.911,123.297,98.911"/>
			<path clip-path="url(#SVGID_24_)" fill="#EA5843" d="M140.622,157.737c-7.921,0-14.389-5.404-17.611-8.73
				c-5.92,5.92-12.185,8.682-18.585,8.436c-7.765-0.381-13.638-5.333-16.606-8.476c-6.444,6.055-13.075,8.88-19.713,8.301
				c-10.904-0.881-17.507-10.492-17.78-10.905c-0.877-1.293-0.536-3.055,0.762-3.936c1.298-0.888,3.067-0.539,3.948,0.754
				c0.052,0.079,5.409,7.785,13.57,8.42c5.642,0.515,11.421-2.524,17.313-8.778c0.583-0.619,1.405-0.984,2.262-0.88
				c0.845,0.055,1.626,0.492,2.122,1.181c0.06,0.08,6.019,8.246,14.44,8.642c5.396,0.191,10.833-2.73,16.181-8.864
				c0.564-0.642,1.429-0.921,2.239-0.968c0.857,0.032,1.65,0.445,2.166,1.119c0.072,0.095,7.35,9.127,15.491,8.992
				c4.698-0.08,9.182-3.079,13.332-8.921c0.5-0.698,1.286-1.135,2.151-1.19c0.865,0.009,1.69,0.294,2.269,0.928
				c0.088,0.096,8.905,9.556,18.095,8.881c4.547-0.349,8.642-3.222,12.158-8.54c0.874-1.309,2.643-1.651,3.944-0.801
				c1.31,0.864,1.667,2.634,0.802,3.944c-4.548,6.864-10.095,10.587-16.499,11.07c-8.745,0.634-16.507-5.024-20.292-8.389
				c-4.77,5.691-10.103,8.618-15.895,8.706H140.622z"/>
			<path clip-path="url(#SVGID_24_)" fill="#EA5843" d="M105.278,128.977c-7.916,0-14.388-5.413-17.615-8.73
				c-5.916,5.92-12.161,8.689-18.582,8.435c-7.765-0.381-13.638-5.332-16.606-8.476c-6.443,6.055-13.087,8.873-19.712,8.301
				c-10.905-0.881-17.503-10.491-17.778-10.905c-0.877-1.293-0.535-3.055,0.762-3.935c1.305-0.889,3.071-0.54,3.948,0.754
				c0.055,0.079,5.404,7.784,13.567,8.419c5.614,0.499,11.42-2.507,17.312-8.778c0.584-0.619,1.409-1.007,2.262-0.88
				c0.846,0.055,1.627,0.492,2.123,1.182c0.059,0.08,6.019,8.245,14.44,8.642c5.436,0.159,10.832-2.73,16.181-8.865
				c0.56-0.642,1.425-0.928,2.238-0.967c0.854,0.032,1.651,0.444,2.171,1.118c0.067,0.088,6.956,8.992,15.289,8.992h0.199
				c4.698-0.088,9.182-3.079,13.328-8.92c0.496-0.698,1.29-1.135,2.143-1.19c0.953-0.008,1.699,0.294,2.278,0.928
				c0.088,0.096,8.888,9.539,18.102,8.88c4.548-0.357,8.642-3.222,12.158-8.539c0.866-1.31,2.635-1.66,3.944-0.802
				c1.309,0.865,1.668,2.635,0.802,3.944c-4.547,6.856-10.094,10.587-16.491,11.071c-8.896,0.594-16.515-5.025-20.308-8.39
				c-4.765,5.692-10.098,8.611-15.888,8.698C105.453,128.977,105.366,128.977,105.278,128.977"/>
			<path clip-path="url(#SVGID_24_)" fill="#EA5843" d="M198.713,102.971H173.58c-8,0-14.507-6.512-14.507-14.512V73.325
				c0-8,6.507-14.511,14.507-14.511h25.133c8,0,14.507,6.511,14.507,14.511v15.134C213.22,96.459,206.713,102.971,198.713,102.971
				 M173.58,64.505c-4.865,0-8.824,3.957-8.824,8.821v15.134c0,4.865,3.959,8.822,8.824,8.822h25.133
				c4.864,0,8.825-3.956,8.825-8.822V73.325c0-4.864-3.961-8.821-8.825-8.821H173.58z"/>
			<path clip-path="url(#SVGID_24_)" fill="#EA5843" d="M202.014,64.505c-1.571,0-2.841-1.273-2.841-2.845V47.315
				c-0.119-0.909-1.611-11.495-12.975-11.495c-11.665,0-13.039,11.77-13.095,12.269l0.016,13.57c0,1.572-1.27,2.845-2.841,2.845
				c-1.571,0-2.841-1.273-2.841-2.845V47.792c0.642-6.306,5.381-17.662,18.761-17.662c13.396,0,18.054,11.055,18.649,16.899
				l0.008,14.63C204.855,63.231,203.585,64.505,202.014,64.505"/>
			<path clip-path="url(#SVGID_24_)" fill="#EA5843" d="M186.142,86.531c-4.452,0-8.071-3.623-8.071-8.079
				c0-4.456,3.619-8.079,8.071-8.079c4.46,0,8.079,3.623,8.079,8.079C194.222,82.908,190.603,86.531,186.142,86.531 M186.142,76.063
				c-1.317,0-2.389,1.072-2.389,2.389c0,1.317,1.072,2.389,2.389,2.389s2.397-1.072,2.397-2.389
				C188.539,77.135,187.459,76.063,186.142,76.063"/>
			<path clip-path="url(#SVGID_24_)" fill="#EA5843" d="M186.142,93.65c-1.571,0-2.841-1.273-2.841-2.845v-7.118
				c0-1.571,1.27-2.845,2.841-2.845s2.841,1.274,2.841,2.845v7.118C188.983,92.376,187.714,93.65,186.142,93.65"/>
		</g>
	</g>
</g>
<g display="none">
	<g display="inline">
		<defs>
			<rect id="SVGID_25_" x="6.529" y="-15.321" width="214.058" height="214.058"/>
		</defs>
		<clipPath id="SVGID_26_">
			<use xlink:href="#SVGID_25_"  overflow="visible"/>
		</clipPath>
		<g clip-path="url(#SVGID_26_)">
			<defs>
				<rect id="SVGID_27_" x="6.529" y="-15.321" width="214.058" height="214.058"/>
			</defs>
			<clipPath id="SVGID_28_">
				<use xlink:href="#SVGID_27_"  overflow="visible"/>
			</clipPath>
			<path clip-path="url(#SVGID_28_)" fill="#EA5843" d="M114.341,177.347c-0.38,0-0.764-0.059-1.129-0.186
				c-66.879-22.893-63.442-74.327-63.398-74.844l-0.015-72.337c0-1.929,1.563-3.491,3.491-3.491
				c35.319,0,58.564-19.368,58.792-19.568c1.309-1.1,3.209-1.095,4.514,0c0.233,0.195,23.594,19.568,58.796,19.568
				c1.929,0,3.487,1.562,3.487,3.491v72.624c0.039,0.23,3.477,51.664-63.408,74.557
				C115.106,177.288,114.721,177.347,114.341,177.347 M56.782,33.413v69.192c-0.156,2.157-2.824,46.337,57.56,67.566
				c60.389-21.228,57.722-65.409,57.574-67.288l-0.009-69.47c-29.924-0.993-50.871-14.48-57.565-19.408
				C107.652,18.933,86.706,32.42,56.782,33.413"/>
			<path clip-path="url(#SVGID_28_)" fill="#EA5843" d="M114.339,31.111c0,0,25.173,13.973,46.321,13.973v46.638
				c0,0,5.558,43.851-46.321,65.142V31.111z"/>
		</g>
	</g>
</g>
<g display="none">
	<g display="inline">
		<defs>
			<rect id="SVGID_29_" x="-7.64" y="-30.49" width="244.396" height="244.396"/>
		</defs>
		<clipPath id="SVGID_30_">
			<use xlink:href="#SVGID_29_"  overflow="visible"/>
		</clipPath>
		<g clip-path="url(#SVGID_30_)">
			<defs>
				<rect id="SVGID_31_" x="-7.64" y="-30.49" width="244.396" height="244.396"/>
			</defs>
			<clipPath id="SVGID_32_">
				<use xlink:href="#SVGID_31_"  overflow="visible"/>
			</clipPath>
			<path clip-path="url(#SVGID_32_)" fill="#EA5843" d="M182.864,86.913h-2.116c-4.652,0-8.434-3.788-8.434-8.438V19.343
				c0-4.655,3.782-8.442,8.434-8.442h2.116c4.652,0,8.435,3.787,8.435,8.442v59.131C191.299,83.125,187.516,86.913,182.864,86.913
				 M180.748,16.263c-1.698,0-3.081,1.383-3.081,3.081v59.131c0,1.698,1.383,3.077,3.081,3.077h2.116
				c1.698,0,3.081-1.38,3.081-3.077V19.343c0-1.698-1.383-3.081-3.081-3.081H180.748z"/>
			<path clip-path="url(#SVGID_32_)" fill="#EA5843" d="M196.496,78.77h-2.116c-4.652,0-8.435-3.787-8.435-8.442V27.486
				c0-4.655,3.783-8.442,8.435-8.442h2.116c4.652,0,8.434,3.787,8.434,8.442v42.842C204.93,74.983,201.147,78.77,196.496,78.77
				 M194.38,24.405c-1.698,0-3.081,1.383-3.081,3.081v42.842c0,1.697,1.383,3.081,3.081,3.081h2.116
				c1.698,0,3.081-1.384,3.081-3.081V27.486c0-1.698-1.383-3.081-3.081-3.081H194.38z"/>
			<path clip-path="url(#SVGID_32_)" fill="#EA5843" d="M209.641,51.59h-7.387c-1.48,0-2.677-1.2-2.677-2.681
				s1.197-2.681,2.677-2.681h7.387c1.481,0,2.677,1.2,2.677,2.681S211.122,51.59,209.641,51.59"/>
			<path clip-path="url(#SVGID_32_)" fill="#EA5843" d="M182.917,172.515h-26.051c-1.481,0-2.677-1.197-2.677-2.677v-22.373
				c0-1.48,1.196-2.676,2.677-2.676h26.051c1.48,0,2.677,1.197,2.677,2.676v22.373C185.594,171.318,184.397,172.515,182.917,172.515
				 M159.542,167.161h20.698v-17.019h-20.698V167.161z"/>
			<path clip-path="url(#SVGID_32_)" fill="#EA5843" d="M48.371,86.913h-2.112c-4.654,0-8.442-3.788-8.442-8.438V19.343
				c0-4.655,3.788-8.442,8.442-8.442h2.112c4.655,0,8.443,3.787,8.443,8.442v59.131C56.814,83.125,53.026,86.913,48.371,86.913
				 M46.259,16.263c-1.698,0-3.081,1.383-3.081,3.081v59.131c0,1.698,1.383,3.077,3.081,3.077h2.112c1.698,0,3.081-1.38,3.081-3.077
				V19.343c0-1.698-1.383-3.081-3.081-3.081H46.259z"/>
			<path clip-path="url(#SVGID_32_)" fill="#EA5843" d="M34.74,78.77h-2.112c-4.655,0-8.443-3.787-8.443-8.442V27.486
				c0-4.655,3.788-8.442,8.443-8.442h2.112c4.651,0,8.438,3.787,8.438,8.442v42.842C43.178,74.983,39.391,78.77,34.74,78.77
				 M32.628,24.405c-1.698,0-3.081,1.383-3.081,3.081v42.842c0,1.697,1.383,3.081,3.081,3.081h2.112
				c1.698,0,3.077-1.384,3.077-3.081V27.486c0-1.698-1.379-3.081-3.077-3.081H32.628z"/>
			<path clip-path="url(#SVGID_32_)" fill="#EA5843" d="M26.867,51.59h-7.388c-1.48,0-2.681-1.2-2.681-2.681s1.2-2.681,2.681-2.681
				h7.388c1.48,0,2.681,1.2,2.681,2.681S28.347,51.59,26.867,51.59"/>
			<path clip-path="url(#SVGID_32_)" fill="#EA5843" d="M169.891,150.142c-1.48,0-2.676-1.196-2.676-2.676V51.589H61.909v95.876
				c0,1.48-1.2,2.676-2.681,2.676s-2.681-1.196-2.681-2.676V48.909c0-1.48,1.2-2.681,2.681-2.681h110.662
				c1.481,0,2.676,1.2,2.676,2.681v98.557C172.567,148.946,171.372,150.142,169.891,150.142"/>
			<path clip-path="url(#SVGID_32_)" fill="#EA5843" d="M72.258,172.515H46.203c-1.48,0-2.681-1.197-2.681-2.677v-22.373
				c0-1.48,1.2-2.676,2.681-2.676h26.055c1.48,0,2.681,1.197,2.681,2.676v22.373C74.939,171.318,73.739,172.515,72.258,172.515
				 M48.884,167.161h20.693v-17.019H48.884V167.161z"/>
		</g>
	</g>
</g>
<g display="none">
	<g display="inline">
		<defs>
			<rect id="SVGID_33_" x="-11" y="-38.792" width="259.792" height="259.792"/>
		</defs>
		<clipPath id="SVGID_34_">
			<use xlink:href="#SVGID_33_"  overflow="visible"/>
		</clipPath>
		<g clip-path="url(#SVGID_34_)">
			<defs>
				<rect id="SVGID_35_" x="-11" y="-38.792" width="259.792" height="259.792"/>
			</defs>
			<clipPath id="SVGID_36_">
				<use xlink:href="#SVGID_35_"  overflow="visible"/>
			</clipPath>
			<path clip-path="url(#SVGID_36_)" fill="#EA5843" d="M141.022,126.024c-1.548,0-2.8-1.251-2.8-2.801V40.039
				c-0.062-0.274-1.987-15.466,5.295-23.787c3.073-3.507,7.242-5.287,12.396-5.287c5.889,0,10.394,1.882,13.397,5.593
				c5.686,7.019,3.449,17.913,3.355,18.374c-0.321,1.521-1.846,2.453-3.324,2.158c-1.509-0.32-2.479-1.806-2.166-3.32
				c0.024-0.086,1.775-8.775-2.229-13.702c-1.916-2.354-4.873-3.496-9.033-3.496c-3.512,0-6.186,1.103-8.181,3.375
				c-4.669,5.334-4.418,16.044-3.934,19.719l0.024,83.556C143.822,124.773,142.57,126.024,141.022,126.024"/>
			<path clip-path="url(#SVGID_36_)" fill="#EA5843" d="M59.155,126.024c-1.548,0-2.804-1.251-2.804-2.801V40.039
				c-0.059-0.274-1.987-15.466,5.298-23.787c3.069-3.507,7.239-5.287,12.392-5.287c5.889,0,10.398,1.882,13.401,5.593
				c5.681,7.019,3.448,17.913,3.351,18.374c-0.317,1.509-1.818,2.472-3.316,2.158c-1.513-0.32-2.483-1.806-2.167-3.32
				c0.016-0.086,1.768-8.775-2.236-13.702c-1.916-2.354-4.868-3.496-9.033-3.496c-3.511,0-6.182,1.098-8.169,3.363
				c-5.611,6.397-3.957,19.602-3.937,19.735l0.023,83.552C61.959,124.773,60.703,126.024,59.155,126.024"/>
			<path clip-path="url(#SVGID_36_)" fill="#EA5843" d="M141.022,60.908H58.889c-1.548,0-2.804-1.256-2.804-2.804
				c0-1.549,1.256-2.804,2.804-2.804h82.133c1.548,0,2.8,1.255,2.8,2.804C143.822,59.653,142.57,60.908,141.022,60.908"/>
			<path clip-path="url(#SVGID_36_)" fill="#EA5843" d="M141.022,102.823H58.889c-1.548,0-2.804-1.255-2.804-2.804
				c0-1.548,1.256-2.804,2.804-2.804h82.133c1.548,0,2.8,1.256,2.8,2.804C143.822,101.568,142.57,102.823,141.022,102.823"/>
			<path clip-path="url(#SVGID_36_)" fill="#EA5843" d="M161.175,171.243c-9.337,0-16.923-6.609-20.482-10.363
				c-6.889,7.03-14.242,10.496-21.593,10.027c-9.182-0.454-16.052-6.507-19.321-10.066c-7.508,7.18-15.172,10.48-22.915,9.87
				c-12.442-1.009-19.985-11.997-20.299-12.466c-0.864-1.274-0.527-3.011,0.752-3.879c1.286-0.876,3.019-0.532,3.891,0.743
				c0.062,0.093,6.413,9.251,16.153,10.018c6.664,0.492,13.593-2.964,20.557-10.37c0.575-0.61,1.392-0.971,2.229-0.869
				c0.837,0.055,1.603,0.486,2.091,1.166c0.071,0.093,7.133,9.784,17.174,10.26c6.265,0.134,12.897-3.221,19.231-10.479
				c0.555-0.633,1.439-0.954,2.205-0.954c0.845,0.031,1.628,0.438,2.135,1.103c0.086,0.11,8.243,10.66,18.191,10.66
				c0.079,0,0.157,0,0.236-0.008c5.638-0.093,10.988-3.652,15.914-10.581c0.493-0.688,1.268-1.119,2.12-1.173
				c0.844,0.016,1.666,0.29,2.236,0.916c0.11,0.117,10.159,11.418,21.468,10.487c5.451-0.414,10.339-3.832,14.524-10.151
				c0.86-1.29,2.596-1.627,3.886-0.789c1.29,0.851,1.642,2.596,0.79,3.887c-5.193,7.843-11.52,12.098-18.801,12.646
				c-10.323,0.742-19.449-6.179-23.634-9.972c-5.529,6.765-11.724,10.237-18.441,10.339H161.175z"/>
			<path clip-path="url(#SVGID_36_)" fill="#EA5843" d="M120.066,137.786c-9.334,0-16.923-6.609-20.478-10.363
				c-6.89,7.022-14.198,10.441-21.596,10.027c-9.182-0.454-16.053-6.507-19.321-10.066c-7.508,7.173-15.169,10.433-22.915,9.87
				c-12.442-1.009-19.985-11.997-20.299-12.466c-0.864-1.274-0.528-3.011,0.752-3.879c1.279-0.884,3.023-0.532,3.891,0.743
				c0.062,0.093,6.413,9.251,16.153,10.017c6.636,0.477,13.588-2.963,20.556-10.369c0.572-0.61,1.377-0.985,2.23-0.869
				c0.837,0.055,1.603,0.486,2.091,1.166c0.071,0.093,7.133,9.784,17.174,10.26c6.592,0.266,12.908-3.222,19.235-10.479
				c0.555-0.634,1.435-0.869,2.206-0.954c0.84,0.031,1.627,0.438,2.139,1.103c0.082,0.11,8.235,10.66,18.183,10.66
				c0.079,0,0.157,0,0.235-0.008c5.635-0.093,10.993-3.652,15.911-10.581c0.492-0.688,1.267-1.119,2.12-1.173
				c0.813-0.016,1.665,0.29,2.236,0.916c0.109,0.117,10.136,11.394,21.468,10.487c5.45-0.414,10.338-3.832,14.523-10.151
				c0.86-1.29,2.604-1.627,3.887-0.789c1.29,0.851,1.642,2.596,0.789,3.887c-5.193,7.843-11.52,12.098-18.8,12.646
				c-10.347,0.719-19.458-6.179-23.635-9.972c-5.529,6.765-11.723,10.237-18.437,10.339H120.066z"/>
		</g>
	</g>
</g>
<g display="none">
	<g display="inline">
		<defs>
			<rect id="SVGID_37_" x="9.662" y="-16.792" width="213.104" height="213.104"/>
		</defs>
		<clipPath id="SVGID_38_">
			<use xlink:href="#SVGID_37_"  overflow="visible"/>
		</clipPath>
		<g clip-path="url(#SVGID_38_)">
			<defs>
				<rect id="SVGID_39_" x="9.662" y="-16.792" width="213.104" height="213.104"/>
			</defs>
			<clipPath id="SVGID_40_">
				<use xlink:href="#SVGID_39_"  overflow="visible"/>
			</clipPath>
			<path clip-path="url(#SVGID_40_)" fill="#EA5843" d="M136.213,174.664H97.109c-1.274,0-2.306-1.029-2.306-2.303V62.049
				c0-1.274,1.032-2.306,2.306-2.306c1.274,0,2.306,1.032,2.306,2.306v108.01h34.495V62.049c0-1.274,1.029-2.306,2.303-2.306
				c1.273,0,2.303,1.032,2.303,2.306v110.312C138.515,173.635,137.485,174.664,136.213,174.664"/>
			<path clip-path="url(#SVGID_40_)" fill="#EA5843" d="M116.66,174.664c-1.274,0-2.306-1.029-2.306-2.303v-63.594
				c0-1.274,1.032-2.304,2.306-2.304c1.274,0,2.306,1.029,2.306,2.304v63.594C118.966,173.635,117.934,174.664,116.66,174.664"/>
			<path clip-path="url(#SVGID_40_)" fill="#EA5843" d="M96.401,119.508c-0.116,0-0.235-0.007-0.353-0.026
				c-4.377-0.669-12.657-4.509-12.657-14.213v-43.22c0-0.202,0.373-20.417,32.559-20.417h0.711c32.19,0,32.557,20.214,32.557,20.417
				v43.22c0,9.705-8.278,13.544-12.657,14.213c-1.222,0.205-2.419-0.669-2.618-1.917c-0.199-1.254,0.656-2.431,1.91-2.637
				c0.36-0.058,8.759-1.518,8.759-9.66v-43.22c-0.013-0.627-0.572-15.806-27.951-15.806h-0.711
				c-27.629,0-27.947,15.648-27.947,15.806v43.22c0,8.219,8.389,9.602,8.746,9.66c1.258,0.193,2.122,1.37,1.926,2.624
				C98.501,118.697,97.521,119.508,96.401,119.508"/>
			<path clip-path="url(#SVGID_40_)" fill="#EA5843" d="M116.66,40.468c-10.004,0-18.143-8.139-18.143-18.144
				c0-10.003,8.139-18.146,18.143-18.146c10.007,0,18.143,8.143,18.143,18.146C134.803,32.329,126.667,40.468,116.66,40.468
				 M116.66,8.79c-7.46,0-13.532,6.072-13.532,13.535c0,7.461,6.072,13.532,13.532,13.532c7.46,0,13.538-6.072,13.538-13.532
				C130.199,14.861,124.12,8.79,116.66,8.79"/>
		</g>
	</g>
</g>
<g display="none">
	<g display="inline">
		<defs>
			<rect id="SVGID_41_" x="-3" y="-25.058" width="235.058" height="235.058"/>
		</defs>
		<clipPath id="SVGID_42_">
			<use xlink:href="#SVGID_41_"  overflow="visible"/>
		</clipPath>
		<g clip-path="url(#SVGID_42_)">
			<defs>
				<rect id="SVGID_43_" x="-3" y="-25.058" width="235.058" height="235.058"/>
			</defs>
			<clipPath id="SVGID_44_">
				<use xlink:href="#SVGID_43_"  overflow="visible"/>
			</clipPath>
			<path clip-path="url(#SVGID_44_)" fill="#EA5843" d="M196.02,76.711H76.311c-1.71,0-3.096-1.386-3.096-3.096
				c0-1.71,1.386-3.096,3.096-3.096H196.02c1.71,0,3.091,1.386,3.091,3.096C199.111,75.325,197.73,76.711,196.02,76.711"/>
			<path clip-path="url(#SVGID_44_)" fill="#EA5843" d="M187.565,106.637H79.558c-1.71,0-3.096-1.382-3.096-3.092
				c0-1.709,1.386-3.096,3.096-3.096h105.685l16.088-55.297H67.196c-1.71,0-3.096-1.386-3.096-3.095c0-1.71,1.386-3.096,3.096-3.096
				h138.262c0.976,0,1.891,0.458,2.479,1.239c0.579,0.778,0.769,1.788,0.492,2.721l-17.892,61.488
				C190.156,105.73,188.939,106.637,187.565,106.637"/>
			<path clip-path="url(#SVGID_44_)" fill="#EA5843" d="M169.673,138.839H98.102c-12.309,0-17.797-11.425-18.976-17.461
				c-0.005-0.017-14.975-78.768-17.902-95.037c-2.413-13.376-12.893-12.81-13.329-12.75L23.6,13.599
				c-1.71,0-3.096-1.386-3.096-3.096c0-1.71,1.386-3.096,3.096-3.096h24.075c5.527-0.35,16.939,2.811,19.637,17.836
				c2.928,16.261,17.888,94.959,17.888,94.959c0.1,0.483,2.635,12.453,12.901,12.453h71.571c1.711,0,3.092,1.382,3.092,3.091
				C172.765,137.457,171.383,138.839,169.673,138.839"/>
			<path clip-path="url(#SVGID_44_)" fill="#EA5843" d="M115.494,106.637c-1.645,0-3.013-1.292-3.087-2.954l-2.759-61.489
				c-0.078-1.706,1.243-3.152,2.953-3.229c1.688-0.16,3.152,1.243,3.23,2.953l2.759,61.488c0.078,1.706-1.243,3.153-2.954,3.231
				H115.494z"/>
			<path clip-path="url(#SVGID_44_)" fill="#EA5843" d="M152.428,106.637c-0.086,0-0.182,0-0.276-0.009
				c-1.702-0.155-2.962-1.658-2.807-3.359l5.536-61.489c0.156-1.692,1.503-2.975,3.359-2.806c1.702,0.155,2.961,1.658,2.807,3.359
				l-5.536,61.488C155.364,105.433,154.017,106.637,152.428,106.637"/>
			<path clip-path="url(#SVGID_44_)" fill="#EA5843" d="M106.068,177.56c-8.169,0-14.814-6.641-14.814-14.81
				c0-8.168,6.645-14.809,14.814-14.809c8.17,0,14.814,6.641,14.814,14.809C120.882,170.919,114.238,177.56,106.068,177.56
				 M106.068,154.123c-4.753,0-8.623,3.869-8.623,8.627c0,4.759,3.869,8.627,8.623,8.627c4.754,0,8.622-3.868,8.622-8.627
				C114.691,157.992,110.823,154.123,106.068,154.123"/>
			<path clip-path="url(#SVGID_44_)" fill="#EA5843" d="M147.739,177.56c-8.17,0-14.81-6.641-14.81-14.81
				c0-8.168,6.64-14.809,14.81-14.809c8.17,0,14.809,6.641,14.809,14.809C162.548,170.919,155.909,177.56,147.739,177.56
				 M147.739,154.123c-4.758,0-8.627,3.869-8.627,8.627c0,4.759,3.868,8.627,8.627,8.627c4.758,0,8.627-3.868,8.627-8.627
				C156.366,157.992,152.497,154.123,147.739,154.123"/>
		</g>
	</g>
</g>
<g>
	<g>
		<defs>
			<rect id="SVGID_45_" x="-16" y="-35.792" width="260.792" height="260.792"/>
		</defs>
		<clipPath id="SVGID_46_">
			<use xlink:href="#SVGID_45_"  overflow="visible"/>
		</clipPath>
		<g clip-path="url(#SVGID_46_)">
			<defs>
				<rect id="SVGID_47_" x="-16" y="-35.792" width="260.792" height="260.792"/>
			</defs>
			<clipPath id="SVGID_48_">
				<use xlink:href="#SVGID_47_"  overflow="visible"/>
			</clipPath>
			<path clip-path="url(#SVGID_48_)" fill="#EA5843" d="M216.285,97.342H12.51c-1.344,0-2.433-1.089-2.433-2.433
				c0-1.343,1.088-2.433,2.433-2.433h203.775c1.343,0,2.43,1.089,2.43,2.433C218.715,96.253,217.629,97.342,216.285,97.342"/>
			<path clip-path="url(#SVGID_48_)" fill="#EA5843" d="M199.824,137.593H28.975c-10.419,0-18.897-8.475-18.897-18.897V70.512
				c0-10.419,8.478-18.897,18.897-18.897h170.849c10.416,0,18.891,8.478,18.891,18.897v48.184
				C218.715,129.118,210.24,137.593,199.824,137.593 M28.975,56.48c-7.739,0-14.032,6.293-14.032,14.032v48.184
				c0,7.742,6.293,14.04,14.032,14.04h170.849c7.736,0,14.032-6.298,14.032-14.04V70.512c0-7.739-6.297-14.032-14.032-14.032H28.975
				z"/>
			<path clip-path="url(#SVGID_48_)" fill="#EA5843" d="M182.521,137.593c-1.344,0-2.43-1.086-2.43-2.43v-10.672
				c-0.121-0.421-1.791-7.886-11.548-7.886H60.253c-10.038,0-11.518,7.96-11.579,8.299l0.037,10.259c0,1.344-1.089,2.43-2.433,2.43
				c-1.343,0-2.433-1.086-2.433-2.43v-10.672c0.766-4.676,5.133-12.744,16.407-12.744h108.29c11.277,0,15.641,8.069,16.374,12.33
				l0.033,11.086C184.95,136.508,183.864,137.593,182.521,137.593"/>
			<path clip-path="url(#SVGID_48_)" fill="#EA5843" d="M182.521,126.92H46.278c-1.343,0-2.433-1.086-2.433-2.429
				c0-1.344,1.089-2.429,2.433-2.429h136.243c1.343,0,2.429,1.085,2.429,2.429C184.95,125.834,183.864,126.92,182.521,126.92"/>
			<path clip-path="url(#SVGID_48_)" fill="#EA5843" d="M29.104,80.215c-2.47,0-4.479-2.008-4.479-4.479
				c0-2.467,2.008-4.475,4.479-4.475c2.467,0,4.475,2.008,4.475,4.475C33.579,78.207,31.571,80.215,29.104,80.215 M29.104,75.35
				l-0.39,0.386c0,0.217,0.173,0.39,0.39,0.39V75.35z"/>
			<path clip-path="url(#SVGID_48_)" fill="#EA5843" d="M47.798,80.215c-2.467,0-4.475-2.008-4.475-4.479
				c0-2.467,2.008-4.475,4.475-4.475c2.47,0,4.479,2.008,4.479,4.475C52.277,78.207,50.268,80.215,47.798,80.215 M47.798,75.35
				l-0.386,0.386c0,0.214,0.173,0.39,0.386,0.39V75.35z"/>
			<path clip-path="url(#SVGID_48_)" fill="#EA5843" d="M66.496,80.215c-2.47,0-4.479-2.008-4.479-4.479
				c0-2.467,2.008-4.475,4.479-4.475c2.467,0,4.475,2.008,4.475,4.475C70.971,78.207,68.962,80.215,66.496,80.215 M66.496,75.35
				l-0.39,0.386c0,0.217,0.173,0.39,0.39,0.39V75.35z"/>
		</g>
	</g>
</g>
</svg>
