<?xml version="1.0" encoding="utf-8"?>
<!-- Generator: Adobe Illustrator 17.0.0, SVG Export Plug-In . SVG Version: 6.00 Build 0)  -->
<!DOCTYPE svg PUBLIC "-//W3C//DTD SVG 1.1//EN" "http://www.w3.org/Graphics/SVG/1.1/DTD/svg11.dtd">
<svg version="1.1" id="Layer_1" xmlns="http://www.w3.org/2000/svg" xmlns:xlink="http://www.w3.org/1999/xlink" x="0px" y="0px"
	 width="229.116px" height="181.416px" viewBox="0 0 229.116 181.416" enable-background="new 0 0 229.116 181.416"
	 xml:space="preserve">
<g display="none">
	<g display="inline">
		<defs>
			<rect id="SVGID_1_" x="-26" y="-49.46" width="283.46" height="283.46"/>
		</defs>
		<clipPath id="SVGID_2_">
			<use xlink:href="#SVGID_1_"  overflow="visible"/>
		</clipPath>
		<path clip-path="url(#SVGID_2_)" fill="#EA5843" d="M225.789,181.416h-16.931c-1.84,0-3.327-1.486-3.327-3.326V6.446
			c0-1.84,1.487-3.331,3.327-3.331h16.931c1.84,0,3.327,1.491,3.327,3.331V178.09C229.116,179.93,227.629,181.416,225.789,181.416
			 M212.185,174.763h10.277V9.778h-10.277V174.763z"/>
	</g>
	<g display="inline">
		<defs>
			<rect id="SVGID_4_" x="-26" y="-49.46" width="283.46" height="283.46"/>
		</defs>
		<clipPath id="SVGID_5_">
			<use xlink:href="#SVGID_4_"  overflow="visible"/>
		</clipPath>
		<path clip-path="url(#SVGID_5_)" fill="#EA5843" d="M144.284,181.416h-16.931c-1.84,0-3.327-1.486-3.327-3.326V6.446
			c0-1.84,1.487-3.331,3.327-3.331h16.931c1.84,0,3.326,1.491,3.326,3.331V178.09C147.61,179.93,146.124,181.416,144.284,181.416
			 M130.68,174.763h10.277V9.778H130.68V174.763z"/>
	</g>
	<g display="inline">
		<defs>
			<rect id="SVGID_6_" x="-26" y="-49.46" width="283.46" height="283.46"/>
		</defs>
		<clipPath id="SVGID_7_">
			<use xlink:href="#SVGID_6_"  overflow="visible"/>
		</clipPath>
		<path clip-path="url(#SVGID_7_)" fill="#EA5843" d="M207.359,35.458h-62.866c-1.791,0-3.238-1.492-3.238-3.332
			c0-1.839,1.447-3.331,3.238-3.331h62.866c1.791,0,3.238,1.492,3.238,3.331C210.597,33.966,209.15,35.458,207.359,35.458"/>
	</g>
	<g display="inline">
		<defs>
			<rect id="SVGID_8_" x="-26" y="-49.46" width="283.46" height="283.46"/>
		</defs>
		<clipPath id="SVGID_9_">
			<use xlink:href="#SVGID_8_"  overflow="visible"/>
		</clipPath>
		<path clip-path="url(#SVGID_9_)" fill="#EA5843" d="M207.359,100.041h-62.866c-1.791,0-3.238-1.491-3.238-3.331
			s1.447-3.332,3.238-3.332h62.866c1.791,0,3.238,1.492,3.238,3.332S209.15,100.041,207.359,100.041"/>
	</g>
	<g display="inline">
		<defs>
			<rect id="SVGID_10_" x="-26" y="-49.46" width="283.46" height="283.46"/>
		</defs>
		<clipPath id="SVGID_11_">
			<use xlink:href="#SVGID_10_"  overflow="visible"/>
		</clipPath>
		<path clip-path="url(#SVGID_11_)" fill="#EA5843" d="M37.08,181.426c-2.263,0-19.408-0.316-28.733-9.516
			c-3.982-3.93-6.003-8.865-6.003-14.682c0-28.798,21.211-31.409,21.429-31.428l9.074-0.019L124.992,33.4
			c1.301-1.311,3.41-1.306,4.712-0.005c1.301,1.296,1.31,3.406,0.009,4.706l-93.126,93.358c-0.622,0.632-1.473,0.976-2.356,0.976
			H24.126c-0.251,0.055-15.119,2.156-15.119,24.793c0,4.023,1.315,7.276,4.014,9.943c7.843,7.722,24.147,7.685,24.24,7.592h24.797
			l62.925-63.57c1.291-1.311,3.401-1.311,4.711-0.029c1.311,1.301,1.32,3.402,0.029,4.712l-63.911,64.555
			c-0.622,0.633-1.477,0.985-2.364,0.985h-26.14C37.27,181.416,37.196,181.426,37.08,181.426"/>
	</g>
</g>
<g>
	<defs>
		<rect id="SVGID_3_" x="7.419" y="-11.587" width="209.639" height="209.639"/>
	</defs>
	<clipPath id="SVGID_12_">
		<use xlink:href="#SVGID_3_"  overflow="visible"/>
	</clipPath>
	<path clip-path="url(#SVGID_12_)" fill="#EA5843" d="M162.483,159.139H62.959c-7.452,0-13.513-6.061-13.513-13.509V32.235
		C49.447,19.423,59.87,9,72.678,9h79.473c13.149,0,23.84,10.699,23.84,23.848V145.63
		C175.991,153.079,169.93,159.139,162.483,159.139 M72.678,14.261c-9.91,0-17.97,8.064-17.97,17.974V145.63
		c0,4.55,3.702,8.256,8.251,8.256h99.524c4.549,0,8.255-3.706,8.255-8.256V32.848c0-10.251-8.343-18.587-18.587-18.587H72.678z"/>
	<path clip-path="url(#SVGID_12_)" fill="#EA5843" d="M172.998,35.669H52.444c-1.453,0-2.631-1.177-2.631-2.631
		c0-1.453,1.178-2.631,2.631-2.631h120.554c1.452,0,2.627,1.178,2.627,2.631C175.625,34.492,174.45,35.669,172.998,35.669"/>
	<path clip-path="url(#SVGID_12_)" fill="#EA5843" d="M112.464,118.282c-36.147,0-60.508-12.87-61.524-13.42
		c-1.28-0.686-1.757-2.279-1.072-3.56c0.679-1.277,2.268-1.757,3.559-1.075c0.239,0.128,24.289,12.801,59.037,12.801
		c34.829,0,59.426-11.352,59.675-11.469c1.299-0.617,2.87-0.053,3.493,1.262c0.617,1.313,0.058,2.88-1.254,3.5
		C173.335,106.806,148.54,118.282,112.464,118.282"/>
	<path clip-path="url(#SVGID_12_)" fill="#EA5843" d="M134.334,146.174H91.107c-1.453,0-2.63-1.174-2.63-2.628
		c0-1.453,1.177-2.626,2.63-2.626h43.227c1.453,0,2.628,1.174,2.628,2.626C136.962,144.999,135.787,146.174,134.334,146.174"/>
	<path clip-path="url(#SVGID_12_)" fill="#EA5843" d="M152.907,146.064c-6.538,0-11.858-5.32-11.858-11.858
		c0-6.545,5.32-11.865,11.858-11.865c6.546,0,11.866,5.32,11.866,11.865C164.772,140.743,159.452,146.064,152.907,146.064
		 M152.907,127.594c-3.639,0-6.604,2.964-6.604,6.611c0,3.639,2.965,6.604,6.604,6.604c3.648,0,6.611-2.965,6.611-6.604
		C159.518,130.558,156.554,127.594,152.907,127.594"/>
	<path clip-path="url(#SVGID_12_)" fill="#EA5843" d="M72.535,146.064c-6.542,0-11.865-5.32-11.865-11.858
		c0-6.545,5.323-11.865,11.865-11.865c6.542,0,11.865,5.32,11.865,11.865C84.4,140.743,79.077,146.064,72.535,146.064
		 M72.535,127.594c-3.643,0-6.604,2.964-6.604,6.611c0,3.639,2.961,6.604,6.604,6.604s6.604-2.965,6.604-6.604
		C79.14,130.558,76.178,127.594,72.535,127.594"/>
	<path clip-path="url(#SVGID_12_)" fill="#EA5843" d="M184.166,82.308c-1.453,0-2.627-1.177-2.627-2.631V64.896
		c0-1.453,1.174-2.631,2.627-2.631c1.453,0,2.627,1.177,2.627,2.631v14.782C186.793,81.131,185.619,82.308,184.166,82.308"/>
	<path clip-path="url(#SVGID_12_)" fill="#EA5843" d="M41.28,82.308c-1.453,0-2.631-1.177-2.631-2.631V64.896
		c0-1.453,1.178-2.631,2.631-2.631s2.631,1.177,2.631,2.631v14.782C43.91,81.131,42.732,82.308,41.28,82.308"/>
	<path clip-path="url(#SVGID_12_)" fill="#EA5843" d="M152.826,176.714c-12.041,0-16.972-8.299-17.897-12.687l-0.052-7.514
		c0-1.453,1.174-2.627,2.627-2.627c1.453,0,2.628,1.174,2.628,2.627v6.97l0.007-0.007c0.066,0,2.128,7.983,12.687,7.983
		c10.618,0,11.755-9.004,11.799-9.385l-0.014-6.171c0-1.453,1.174-2.627,2.626-2.627c1.453,0,2.628,1.174,2.628,2.627v6.465
		C169.299,167.527,165.036,176.714,152.826,176.714"/>
	<path clip-path="url(#SVGID_12_)" fill="#EA5843" d="M72.616,176.714c-12.21,0-16.473-9.187-17.02-14.052l-0.018-7.243
		c0-1.453,1.177-2.627,2.631-2.627c1.453,0,2.631,1.174,2.631,2.627v6.95c0.103,0.652,1.456,9.091,11.777,9.091
		c10.831,0,12.676-8.166,12.749-8.519l-0.058-6.428c0-1.453,1.177-2.627,2.631-2.627c1.453,0,2.631,1.174,2.631,2.627v6.97
		C89.588,168.414,84.657,176.714,72.616,176.714"/>
</g>
</svg>
