<?xml version="1.0" encoding="utf-8"?>
<!-- Generator: Adobe Illustrator 17.0.0, SVG Export Plug-In . SVG Version: 6.00 Build 0)  -->
<!DOCTYPE svg PUBLIC "-//W3C//DTD SVG 1.1//EN" "http://www.w3.org/Graphics/SVG/1.1/DTD/svg11.dtd">
<svg version="1.1" id="Layer_1" xmlns="http://www.w3.org/2000/svg" xmlns:xlink="http://www.w3.org/1999/xlink" x="0px" y="0px"
	 width="229.116px" height="181.416px" viewBox="0 0 229.116 181.416" enable-background="new 0 0 229.116 181.416"
	 xml:space="preserve">
<g display="none">
	<g display="inline">
		<defs>
			<rect id="SVGID_1_" x="-26" y="-49.46" width="283.46" height="283.46"/>
		</defs>
		<clipPath id="SVGID_2_">
			<use xlink:href="#SVGID_1_"  overflow="visible"/>
		</clipPath>
		<path clip-path="url(#SVGID_2_)" fill="#EA5843" d="M225.789,181.416h-16.931c-1.84,0-3.327-1.486-3.327-3.326V6.446
			c0-1.84,1.487-3.331,3.327-3.331h16.931c1.84,0,3.327,1.491,3.327,3.331V178.09C229.116,179.93,227.629,181.416,225.789,181.416
			 M212.185,174.763h10.277V9.778h-10.277V174.763z"/>
	</g>
	<g display="inline">
		<defs>
			<rect id="SVGID_4_" x="-26" y="-49.46" width="283.46" height="283.46"/>
		</defs>
		<clipPath id="SVGID_5_">
			<use xlink:href="#SVGID_4_"  overflow="visible"/>
		</clipPath>
		<path clip-path="url(#SVGID_5_)" fill="#EA5843" d="M144.284,181.416h-16.931c-1.84,0-3.327-1.486-3.327-3.326V6.446
			c0-1.84,1.487-3.331,3.327-3.331h16.931c1.84,0,3.326,1.491,3.326,3.331V178.09C147.61,179.93,146.124,181.416,144.284,181.416
			 M130.68,174.763h10.277V9.778H130.68V174.763z"/>
	</g>
	<g display="inline">
		<defs>
			<rect id="SVGID_6_" x="-26" y="-49.46" width="283.46" height="283.46"/>
		</defs>
		<clipPath id="SVGID_7_">
			<use xlink:href="#SVGID_6_"  overflow="visible"/>
		</clipPath>
		<path clip-path="url(#SVGID_7_)" fill="#EA5843" d="M207.359,35.458h-62.866c-1.791,0-3.238-1.492-3.238-3.332
			c0-1.839,1.447-3.331,3.238-3.331h62.866c1.791,0,3.238,1.492,3.238,3.331C210.597,33.966,209.15,35.458,207.359,35.458"/>
	</g>
	<g display="inline">
		<defs>
			<rect id="SVGID_8_" x="-26" y="-49.46" width="283.46" height="283.46"/>
		</defs>
		<clipPath id="SVGID_9_">
			<use xlink:href="#SVGID_8_"  overflow="visible"/>
		</clipPath>
		<path clip-path="url(#SVGID_9_)" fill="#EA5843" d="M207.359,100.041h-62.866c-1.791,0-3.238-1.491-3.238-3.331
			s1.447-3.332,3.238-3.332h62.866c1.791,0,3.238,1.492,3.238,3.332S209.15,100.041,207.359,100.041"/>
	</g>
	<g display="inline">
		<defs>
			<rect id="SVGID_10_" x="-26" y="-49.46" width="283.46" height="283.46"/>
		</defs>
		<clipPath id="SVGID_11_">
			<use xlink:href="#SVGID_10_"  overflow="visible"/>
		</clipPath>
		<path clip-path="url(#SVGID_11_)" fill="#EA5843" d="M37.08,181.426c-2.263,0-19.408-0.316-28.733-9.516
			c-3.982-3.93-6.003-8.865-6.003-14.682c0-28.798,21.211-31.409,21.429-31.428l9.074-0.019L124.992,33.4
			c1.301-1.311,3.41-1.306,4.712-0.005c1.301,1.296,1.31,3.406,0.009,4.706l-93.126,93.358c-0.622,0.632-1.473,0.976-2.356,0.976
			H24.126c-0.251,0.055-15.119,2.156-15.119,24.793c0,4.023,1.315,7.276,4.014,9.943c7.843,7.722,24.147,7.685,24.24,7.592h24.797
			l62.925-63.57c1.291-1.311,3.401-1.311,4.711-0.029c1.311,1.301,1.32,3.402,0.029,4.712l-63.911,64.555
			c-0.622,0.633-1.477,0.985-2.364,0.985h-26.14C37.27,181.416,37.196,181.426,37.08,181.426"/>
	</g>
</g>
<g display="none">
	<defs>
		<rect id="SVGID_3_" x="7.419" y="-11.587" width="209.639" height="209.639"/>
	</defs>
	<clipPath id="SVGID_12_" display="inline">
		<use xlink:href="#SVGID_3_"  overflow="visible"/>
	</clipPath>
	<path display="inline" clip-path="url(#SVGID_12_)" fill="#EA5843" d="M162.483,159.139H62.959
		c-7.452,0-13.513-6.061-13.513-13.509V32.235C49.447,19.423,59.87,9,72.678,9h79.473c13.149,0,23.84,10.699,23.84,23.848V145.63
		C175.991,153.079,169.93,159.139,162.483,159.139 M72.678,14.261c-9.91,0-17.97,8.064-17.97,17.974V145.63
		c0,4.55,3.702,8.256,8.251,8.256h99.524c4.549,0,8.255-3.706,8.255-8.256V32.848c0-10.251-8.343-18.587-18.587-18.587H72.678z"/>
	<path display="inline" clip-path="url(#SVGID_12_)" fill="#EA5843" d="M172.998,35.669H52.444c-1.453,0-2.631-1.177-2.631-2.631
		c0-1.453,1.178-2.631,2.631-2.631h120.554c1.452,0,2.627,1.178,2.627,2.631C175.625,34.492,174.45,35.669,172.998,35.669"/>
	<path display="inline" clip-path="url(#SVGID_12_)" fill="#EA5843" d="M112.464,118.282c-36.147,0-60.508-12.87-61.524-13.42
		c-1.28-0.686-1.757-2.279-1.072-3.56c0.679-1.277,2.268-1.757,3.559-1.075c0.239,0.128,24.289,12.801,59.037,12.801
		c34.829,0,59.426-11.352,59.675-11.469c1.299-0.617,2.87-0.053,3.493,1.262c0.617,1.313,0.058,2.88-1.254,3.5
		C173.335,106.806,148.54,118.282,112.464,118.282"/>
	<path display="inline" clip-path="url(#SVGID_12_)" fill="#EA5843" d="M134.334,146.174H91.107c-1.453,0-2.63-1.174-2.63-2.628
		c0-1.453,1.177-2.626,2.63-2.626h43.227c1.453,0,2.628,1.174,2.628,2.626C136.962,144.999,135.787,146.174,134.334,146.174"/>
	<path display="inline" clip-path="url(#SVGID_12_)" fill="#EA5843" d="M152.907,146.064c-6.538,0-11.858-5.32-11.858-11.858
		c0-6.545,5.32-11.865,11.858-11.865c6.546,0,11.866,5.32,11.866,11.865C164.772,140.743,159.452,146.064,152.907,146.064
		 M152.907,127.594c-3.639,0-6.604,2.964-6.604,6.611c0,3.639,2.965,6.604,6.604,6.604c3.648,0,6.611-2.965,6.611-6.604
		C159.518,130.558,156.554,127.594,152.907,127.594"/>
	<path display="inline" clip-path="url(#SVGID_12_)" fill="#EA5843" d="M72.535,146.064c-6.542,0-11.865-5.32-11.865-11.858
		c0-6.545,5.323-11.865,11.865-11.865c6.542,0,11.865,5.32,11.865,11.865C84.4,140.743,79.077,146.064,72.535,146.064
		 M72.535,127.594c-3.643,0-6.604,2.964-6.604,6.611c0,3.639,2.961,6.604,6.604,6.604s6.604-2.965,6.604-6.604
		C79.14,130.558,76.178,127.594,72.535,127.594"/>
	<path display="inline" clip-path="url(#SVGID_12_)" fill="#EA5843" d="M184.166,82.308c-1.453,0-2.627-1.177-2.627-2.631V64.896
		c0-1.453,1.174-2.631,2.627-2.631c1.453,0,2.627,1.177,2.627,2.631v14.782C186.793,81.131,185.619,82.308,184.166,82.308"/>
	<path display="inline" clip-path="url(#SVGID_12_)" fill="#EA5843" d="M41.28,82.308c-1.453,0-2.631-1.177-2.631-2.631V64.896
		c0-1.453,1.178-2.631,2.631-2.631s2.631,1.177,2.631,2.631v14.782C43.91,81.131,42.732,82.308,41.28,82.308"/>
	<path display="inline" clip-path="url(#SVGID_12_)" fill="#EA5843" d="M152.826,176.714c-12.041,0-16.972-8.299-17.897-12.687
		l-0.052-7.514c0-1.453,1.174-2.627,2.627-2.627c1.453,0,2.628,1.174,2.628,2.627v6.97l0.007-0.007
		c0.066,0,2.128,7.983,12.687,7.983c10.618,0,11.755-9.004,11.799-9.385l-0.014-6.171c0-1.453,1.174-2.627,2.626-2.627
		c1.453,0,2.628,1.174,2.628,2.627v6.465C169.299,167.527,165.036,176.714,152.826,176.714"/>
	<path display="inline" clip-path="url(#SVGID_12_)" fill="#EA5843" d="M72.616,176.714c-12.21,0-16.473-9.187-17.02-14.052
		l-0.018-7.243c0-1.453,1.177-2.627,2.631-2.627c1.453,0,2.631,1.174,2.631,2.627v6.95c0.103,0.652,1.456,9.091,11.777,9.091
		c10.831,0,12.676-8.166,12.749-8.519l-0.058-6.428c0-1.453,1.177-2.627,2.631-2.627c1.453,0,2.631,1.174,2.631,2.627v6.97
		C89.588,168.414,84.657,176.714,72.616,176.714"/>
</g>
<g display="none">
	<g display="inline">
		<defs>
			<rect id="SVGID_13_" x="7.324" y="-14.688" width="214.792" height="214.792"/>
		</defs>
		<clipPath id="SVGID_14_">
			<use xlink:href="#SVGID_13_"  overflow="visible"/>
		</clipPath>
		<g clip-path="url(#SVGID_14_)">
			<defs>
				<rect id="SVGID_15_" x="7.324" y="-14.688" width="214.792" height="214.792"/>
			</defs>
			<clipPath id="SVGID_16_">
				<use xlink:href="#SVGID_15_"  overflow="visible"/>
			</clipPath>
			<path clip-path="url(#SVGID_16_)" fill="#EA5843" d="M156.391,155.984H73.056c-3.275,0-5.937-2.662-5.937-5.937V12.73
				c0-3.274,2.662-5.941,5.937-5.941h83.335c3.274,0,5.929,2.667,5.929,5.941v137.317
				C162.321,153.323,159.666,155.984,156.391,155.984 M73.056,12.078c-0.358,0-0.649,0.291-0.649,0.652v137.317
				c0,0.361,0.291,0.656,0.649,0.656h83.335c0.354,0,0.649-0.295,0.649-0.656V12.73c0-0.361-0.295-0.652-0.649-0.652H73.056z"/>
			<path clip-path="url(#SVGID_16_)" fill="#EA5843" d="M138.382,155.984c-1.461,0-2.64-1.18-2.64-2.64V9.434
				c0-1.46,1.179-2.644,2.64-2.644c1.46,0,2.64,1.184,2.64,2.644v143.91C141.022,154.804,139.842,155.984,138.382,155.984"/>
			<path clip-path="url(#SVGID_16_)" fill="#EA5843" d="M104.898,61.642c-11.992,0-21.749-9.754-21.749-21.745
				c0-11.992,9.757-21.75,21.749-21.75c11.992,0,21.742,9.758,21.742,21.75C126.64,51.888,116.89,61.642,104.898,61.642
				 M104.898,23.436c-9.079,0-16.461,7.382-16.461,16.461c0,9.075,7.383,16.457,16.461,16.457c9.076,0,16.461-7.382,16.461-16.457
				C121.359,30.818,113.974,23.436,104.898,23.436"/>
			<path clip-path="url(#SVGID_16_)" fill="#EA5843" d="M100.459,52.681c-1.46,0-2.644-1.184-2.644-2.644V29.616
				c0-1.46,1.184-2.644,2.644-2.644c1.46,0,2.644,1.184,2.644,2.644v20.422C103.102,51.498,101.919,52.681,100.459,52.681"/>
			<path clip-path="url(#SVGID_16_)" fill="#EA5843" d="M109.334,52.822c-1.46,0-2.644-1.184-2.644-2.644V29.756
				c0-1.46,1.184-2.644,2.644-2.644c1.46,0,2.644,1.184,2.644,2.644v20.422C111.978,51.638,110.795,52.822,109.334,52.822"/>
			<path clip-path="url(#SVGID_16_)" fill="#EA5843" d="M115.179,38.104H94.753c-1.459,0-2.643-1.184-2.643-2.644
				c0-1.46,1.184-2.645,2.643-2.645h20.426c1.46,0,2.64,1.184,2.64,2.645C117.819,36.921,116.639,38.104,115.179,38.104"/>
			<path clip-path="url(#SVGID_16_)" fill="#EA5843" d="M115.039,46.977H94.614c-1.46,0-2.644-1.184-2.644-2.644
				c0-1.461,1.184-2.645,2.644-2.645h20.425c1.46,0,2.641,1.184,2.641,2.645C117.68,45.793,116.499,46.977,115.039,46.977"/>
			<path clip-path="url(#SVGID_16_)" fill="#EA5843" d="M104.824,144.627c-11.992,0-21.745-9.758-21.745-21.749
				c0-11.993,9.753-21.746,21.745-21.746c11.991,0,21.741,9.753,21.741,21.746C126.566,134.869,116.816,144.627,104.824,144.627
				 M104.824,106.417c-9.076,0-16.458,7.382-16.458,16.461c0,9.079,7.382,16.468,16.458,16.468c9.075,0,16.461-7.39,16.461-16.468
				C121.286,113.799,113.899,106.417,104.824,106.417"/>
			<path clip-path="url(#SVGID_16_)" fill="#EA5843" d="M100.388,135.659c-1.46,0-2.644-1.181-2.644-2.64v-20.422
				c0-1.46,1.184-2.64,2.644-2.64c1.46,0,2.644,1.18,2.644,2.64v20.422C103.032,134.478,101.848,135.659,100.388,135.659"/>
			<path clip-path="url(#SVGID_16_)" fill="#EA5843" d="M109.264,135.806c-1.46,0-2.644-1.18-2.644-2.64v-20.429
				c0-1.46,1.184-2.641,2.644-2.641c1.46,0,2.644,1.181,2.644,2.641v20.429C111.908,134.626,110.725,135.806,109.264,135.806"/>
			<path clip-path="url(#SVGID_16_)" fill="#EA5843" d="M115.109,121.086H94.683c-1.46,0-2.644-1.181-2.644-2.64
				c0-1.46,1.184-2.641,2.644-2.641h20.426c1.46,0,2.644,1.181,2.644,2.641C117.753,119.905,116.569,121.086,115.109,121.086"/>
			<path clip-path="url(#SVGID_16_)" fill="#EA5843" d="M114.969,129.958H94.543c-1.459,0-2.644-1.181-2.644-2.64
				c0-1.461,1.184-2.641,2.644-2.641h20.426c1.46,0,2.644,1.18,2.644,2.641C117.613,128.777,116.429,129.958,114.969,129.958"/>
			<path clip-path="url(#SVGID_16_)" fill="#EA5843" d="M90.189,178.626H77.507c-1.46,0-2.644-1.18-2.644-2.64v-22.642
				c0-1.46,1.184-2.64,2.644-2.64h12.682c1.46,0,2.644,1.18,2.644,2.64v22.642C92.832,177.446,91.649,178.626,90.189,178.626
				 M80.151,173.346h7.393v-17.362h-7.393V173.346z"/>
			<path clip-path="url(#SVGID_16_)" fill="#EA5843" d="M151.944,178.626h-12.685c-1.46,0-2.64-1.18-2.64-2.64v-22.642
				c0-1.46,1.18-2.64,2.64-2.64h12.685c1.46,0,2.641,1.18,2.641,2.64v22.642C154.585,177.446,153.404,178.626,151.944,178.626
				 M141.9,173.346h7.404v-17.362H141.9V173.346z"/>
		</g>
	</g>
</g>
<g display="none">
	<g display="inline">
		<defs>
			<rect id="SVGID_17_" x="14" y="-15.879" width="213.116" height="213.116"/>
		</defs>
		<clipPath id="SVGID_18_">
			<use xlink:href="#SVGID_17_"  overflow="visible"/>
		</clipPath>
		<g clip-path="url(#SVGID_18_)">
			<defs>
				<rect id="SVGID_19_" x="14" y="-15.879" width="213.116" height="213.116"/>
			</defs>
			<clipPath id="SVGID_20_">
				<use xlink:href="#SVGID_19_"  overflow="visible"/>
			</clipPath>
			<path clip-path="url(#SVGID_20_)" fill="#EA5843" d="M74.602,160.105c-0.496,0-1.001-0.115-1.474-0.363
				c-32.955-17.356-35.227-51.635-35.311-53.084l-0.005-32.738c0-1.753,1.422-3.174,3.175-3.174h129.07
				c1.753,0,3.171,1.421,3.171,3.174v32.561c-0.079,1.625-2.356,35.904-35.306,53.26c-1.522,0.806-3.471,0.239-4.285-1.328
				c-0.815-1.55-0.222-3.471,1.328-4.285c29.692-15.648,31.905-47.509,31.924-47.828V77.095H44.161v29.387
				c0.014,0.137,2.223,31.998,31.924,47.646c1.55,0.814,2.147,2.735,1.328,4.285C76.847,159.494,75.745,160.105,74.602,160.105"/>
			<path clip-path="url(#SVGID_20_)" fill="#EA5843" d="M157.846,173.813H53.194c-11.667,0-16.365-10.732-17.223-16.409
				c-0.138-0.912,0.128-1.842,0.735-2.541c0.602-0.699,1.479-1.098,2.404-1.098h132.825c0.922,0,1.807,0.399,2.409,1.098
				c0.602,0.699,0.868,1.629,0.726,2.541C174.22,163.08,169.518,173.813,157.846,173.813 M43.334,160.105
				c1.332,3.214,4.162,7.367,9.86,7.367h104.652c5.703,0,8.537-4.153,9.865-7.367H43.334z"/>
			<path clip-path="url(#SVGID_20_)" fill="#EA5843" d="M165.303,137.861c-1.639,0-3.312-0.053-5.039-0.159
				c-1.744-0.115-3.073-1.621-2.966-3.374c0.105-1.736,1.372-2.949,3.373-2.967c13.726,0.921,24.157-2.019,30.931-8.572
				c8.723-8.421,8.484-20.115,8.484-20.23V86.486h-30.029c-1.753,0-3.17-1.421-3.17-3.174c0-1.754,1.416-3.175,3.17-3.175h33.199
				c1.753,0,3.171,1.421,3.171,3.175v19.154c0.018,0.501,0.301,14.541-10.405,24.892
				C188.796,134.336,178.479,137.861,165.303,137.861"/>
			<path clip-path="url(#SVGID_20_)" fill="#EA5843" d="M169.332,127.713c-1.062,0-2.143-0.035-3.258-0.098
				c-1.753-0.106-3.09-1.611-2.985-3.356c0.107-1.753,1.63-2.993,3.357-2.984c8.651,0.54,14.859-1.195,18.614-5.065
				c4.383-4.543,3.931-10.804,3.923-10.866l-0.009-8.709h-17.959c-1.753,0-3.171-1.422-3.171-3.175s1.417-3.174,3.171-3.174h21.129
				c1.753,0,3.171,1.421,3.171,3.174v11.588c0.026,0.074,0.771,8.886-5.694,15.571C185.068,125.33,178.249,127.713,169.332,127.713"
				/>
			<path clip-path="url(#SVGID_20_)" fill="#EA5843" d="M127.003,149.771c-1.293,0-2.51-0.798-2.98-2.082
				c-0.602-1.647,0.243-3.471,1.891-4.073c23.342-8.509,23.272-32.038,23.272-32.277c-0.026-1.753,1.372-3.188,3.125-3.215
				c1.86,0.142,3.188,1.373,3.215,3.127c0.009,0.283,0.097,28.292-27.434,38.334C127.73,149.709,127.366,149.771,127.003,149.771"/>
			<path clip-path="url(#SVGID_20_)" fill="#EA5843" d="M126.074,61.505c-0.868,0-1.731-0.354-2.356-1.053
				c-1.173-1.302-1.068-3.308,0.23-4.481c2.426-2.188,6.27-6.792,6.27-9.847c0-1.112-0.576-1.741-2.214-3.259
				c-2.152-1.997-5.105-4.729-5.105-10.263c0-9.768,8.966-13.332,9.347-13.478c1.647-0.638,3.48,0.182,4.1,1.82
				c0.629,1.634-0.177,3.462-1.798,4.1c-0.301,0.12-5.303,2.245-5.303,7.558c0,2.763,1.292,3.954,3.073,5.606
				c1.886,1.753,4.241,3.936,4.241,7.917c0,6.854-7.509,13.796-8.36,14.567C127.588,61.235,126.835,61.505,126.074,61.505"/>
			<path clip-path="url(#SVGID_20_)" fill="#EA5843" d="M76.462,61.505c-0.872,0-1.736-0.354-2.365-1.053
				c-1.169-1.302-1.062-3.308,0.239-4.481c2.422-2.188,6.27-6.792,6.27-9.847c0-1.112-0.575-1.741-2.214-3.259
				c-2.156-1.992-5.109-4.725-5.109-10.263c0-9.768,8.975-13.332,9.36-13.478c1.612-0.638,3.467,0.182,4.1,1.825
				c0.629,1.629-0.181,3.458-1.807,4.092c-0.269,0.111-5.304,2.231-5.304,7.562c0,2.763,1.289,3.954,3.069,5.606
				c1.895,1.753,4.255,3.931,4.255,7.917c0,6.854-7.522,13.801-8.377,14.571C77.971,61.235,77.214,61.505,76.462,61.505"/>
			<path clip-path="url(#SVGID_20_)" fill="#EA5843" d="M101.27,49.299c-0.868,0-1.736-0.354-2.36-1.054
				c-1.173-1.301-1.067-3.307,0.23-4.481c2.427-2.187,6.27-6.792,6.27-9.847c0-1.111-0.571-1.74-2.213-3.258
				c-2.152-1.997-5.106-4.725-5.106-10.263c0-9.768,8.971-13.332,9.356-13.478c1.607-0.642,3.467,0.182,4.101,1.824
				c0.629,1.625-0.182,3.454-1.802,4.092c-0.226,0.093-5.304,2.21-5.304,7.563c0,2.762,1.289,3.953,3.068,5.605
				c1.895,1.753,4.251,3.932,4.251,7.917c0,6.854-7.518,13.801-8.373,14.567C102.779,49.029,102.022,49.299,101.27,49.299"/>
		</g>
	</g>
</g>
<g display="none">
	<g display="inline">
		<defs>
			<rect id="SVGID_21_" x="-15.971" y="-35.792" width="259.792" height="259.792"/>
		</defs>
		<clipPath id="SVGID_22_">
			<use xlink:href="#SVGID_21_"  overflow="visible"/>
		</clipPath>
		<g clip-path="url(#SVGID_22_)">
			<defs>
				<rect id="SVGID_23_" x="-15.971" y="-35.792" width="259.792" height="259.792"/>
			</defs>
			<clipPath id="SVGID_24_">
				<use xlink:href="#SVGID_23_"  overflow="visible"/>
			</clipPath>
			<path clip-path="url(#SVGID_24_)" fill="#EA5843" d="M80.192,155.565c-0.538,0-1.085-0.147-1.574-0.456
				c-1.358-0.873-1.754-2.684-0.885-4.037l67.454-105.322c0.881-1.362,2.684-1.741,4.036-0.884c1.363,0.873,1.762,2.679,0.89,4.041
				L82.659,154.219C82.101,155.092,81.154,155.565,80.192,155.565"/>
			<path clip-path="url(#SVGID_24_)" fill="#EA5843" d="M147.65,155.565c-0.963,0-1.901-0.473-2.464-1.345L77.733,48.906
				c-0.868-1.362-0.473-3.168,0.885-4.041c1.378-0.857,3.173-0.465,4.041,0.884l67.455,105.322c0.873,1.354,0.472,3.165-0.89,4.037
				C148.735,155.418,148.196,155.565,147.65,155.565"/>
			<path clip-path="url(#SVGID_24_)" fill="#EA5843" d="M171.114,50.252H56.736c-1.616,0-2.925-1.31-2.925-2.925V35.567
				c0-1.615,1.309-2.924,2.925-2.924h114.378c1.616,0,2.92,1.309,2.92,2.924v11.761C174.034,48.942,172.73,50.252,171.114,50.252
				 M59.66,44.404h108.534v-5.913H59.66V44.404z"/>
			<path clip-path="url(#SVGID_24_)" fill="#EA5843" d="M214.87,92.254h-53.746c-1.616,0-2.921-1.309-2.921-2.924V77.569
				c0-1.614,1.305-2.923,2.921-2.923h53.746c1.615,0,2.92,1.309,2.92,2.923v11.761C217.79,90.946,216.485,92.254,214.87,92.254
				 M164.043,86.407h47.907v-5.913h-47.907V86.407z"/>
			<path clip-path="url(#SVGID_24_)" fill="#EA5843" d="M214.92,155.565c-1.33,0-2.529-0.905-2.847-2.251l-14.86-63.315
				c-0.368-1.574,0.604-3.144,2.178-3.515c1.623-0.367,3.148,0.608,3.516,2.178l14.859,63.315c0.368,1.574-0.603,3.148-2.178,3.515
				C215.36,155.541,215.14,155.565,214.92,155.565"/>
			<path clip-path="url(#SVGID_24_)" fill="#EA5843" d="M161.074,155.565c-0.22,0-0.44-0.024-0.668-0.073
				c-1.575-0.367-2.545-1.941-2.178-3.515l14.859-63.315c0.376-1.57,1.925-2.544,3.515-2.178c1.575,0.371,2.545,1.941,2.178,3.515
				l-14.86,63.315C163.603,154.66,162.403,155.565,161.074,155.565"/>
			<path clip-path="url(#SVGID_24_)" fill="#EA5843" d="M66.727,92.254H12.975c-1.615,0-2.924-1.309-2.924-2.924V77.569
				c0-1.614,1.309-2.923,2.924-2.923h53.752c1.615,0,2.924,1.309,2.924,2.923v11.761C69.651,90.946,68.342,92.254,66.727,92.254
				 M15.899,86.407h47.904v-5.913H15.899V86.407z"/>
			<path clip-path="url(#SVGID_24_)" fill="#EA5843" d="M66.772,155.565c-1.325,0-2.524-0.905-2.843-2.251L49.069,89.999
				c-0.368-1.574,0.608-3.144,2.178-3.515c1.553-0.371,3.144,0.604,3.515,2.178l14.86,63.315c0.368,1.574-0.608,3.148-2.178,3.515
				C67.22,155.541,66.996,155.565,66.772,155.565"/>
			<path clip-path="url(#SVGID_24_)" fill="#EA5843" d="M12.934,155.565c-0.225,0-0.448-0.024-0.673-0.073
				c-1.57-0.367-2.544-1.941-2.178-3.515l14.86-63.315c0.371-1.578,1.958-2.552,3.515-2.178c1.57,0.371,2.545,1.941,2.178,3.515
				l-14.859,63.315C15.458,154.66,14.259,155.565,12.934,155.565"/>
		</g>
	</g>
</g>
<g display="none">
	<g display="inline">
		<defs>
			<rect id="SVGID_25_" x="7" y="-14.792" width="211" height="211"/>
		</defs>
		<clipPath id="SVGID_26_">
			<use xlink:href="#SVGID_25_"  overflow="visible"/>
		</clipPath>
		<g clip-path="url(#SVGID_26_)">
			<defs>
				<rect id="SVGID_27_" x="7" y="-14.792" width="211" height="211"/>
			</defs>
			<clipPath id="SVGID_28_">
				<use xlink:href="#SVGID_27_"  overflow="visible"/>
			</clipPath>
			<path clip-path="url(#SVGID_28_)" fill="#EA5843" d="M113.215,174.818c-46.541,0-84.401-37.854-84.401-84.396
				s37.86-84.407,84.401-84.407c46.548,0,84.401,37.866,84.401,84.407S159.762,174.818,113.215,174.818 M113.215,15.029
				c-41.569,0-75.387,33.818-75.387,75.394c0,41.575,33.818,75.394,75.387,75.394s75.4-33.819,75.4-75.394
				C188.614,48.847,154.783,15.029,113.215,15.029"/>
			<path clip-path="url(#SVGID_28_)" fill="#EA5843" d="M193.115,94.93H33.321c-2.49,0-4.507-2.018-4.507-4.507
				c0-2.488,2.017-4.506,4.507-4.506h159.795c2.489,0,4.501,2.018,4.501,4.506C197.616,92.912,195.604,94.93,193.115,94.93"/>
			<path clip-path="url(#SVGID_28_)" fill="#EA5843" d="M113.215,174.818c-2.489,0-4.507-2.012-4.507-4.501V90.423
				c0-2.489,2.018-4.507,4.507-4.507c2.489,0,4.507,2.018,4.507,4.507v79.894C117.722,172.806,115.704,174.818,113.215,174.818"/>
			<path clip-path="url(#SVGID_28_)" fill="#EA5843" d="M142.248,108.416H84.186c-4.928,0-8.922-3.464-8.922-7.736V80.168
				c0-4.273,3.994-7.736,8.922-7.736h58.063c4.928,0,8.922,3.464,8.922,7.736v20.511
				C151.17,104.952,147.176,108.416,142.248,108.416"/>
		</g>
	</g>
</g>
<g display="none">
	<g display="inline">
		<defs>
			<rect id="SVGID_29_" x="11.529" y="-10.792" width="204.529" height="204.529"/>
		</defs>
		<clipPath id="SVGID_30_">
			<use xlink:href="#SVGID_29_"  overflow="visible"/>
		</clipPath>
		<g clip-path="url(#SVGID_30_)">
			<defs>
				<rect id="SVGID_31_" x="11.529" y="-10.792" width="204.529" height="204.529"/>
			</defs>
			<clipPath id="SVGID_32_">
				<use xlink:href="#SVGID_31_"  overflow="visible"/>
			</clipPath>
			<path clip-path="url(#SVGID_32_)" fill="#EA5843" d="M186.681,173.29h-10.226c-1.481,0-2.676-1.196-2.676-2.676V15.024H55.035
				v155.59c0,1.48-1.2,2.676-2.681,2.676H41.755c-1.481,0-2.681-1.196-2.681-2.676c0-1.481,1.2-2.676,2.681-2.676h7.92V12.344
				c0-1.48,1.2-2.68,2.68-2.68h124.1c1.48,0,2.676,1.2,2.676,2.68v155.594h7.55c1.48,0,2.676,1.196,2.676,2.676
				C189.357,172.094,188.161,173.29,186.681,173.29"/>
			<path clip-path="url(#SVGID_32_)" fill="#EA5843" d="M161.668,173.29h-94.9c-1.48,0-2.68-1.196-2.68-2.676V38.661
				c0-1.481,1.2-2.68,2.68-2.68h94.9c1.481,0,2.676,1.199,2.676,2.68v131.952C164.344,172.094,163.149,173.29,161.668,173.29
				 M69.448,167.937h89.544V41.341H69.448V167.937z"/>
			<path clip-path="url(#SVGID_32_)" fill="#EA5843" d="M114.218,85.865c-1.48,0-2.68-1.2-2.68-2.68V38.661
				c0-1.481,1.2-2.68,2.68-2.68s2.68,1.199,2.68,2.68v44.524C116.898,84.665,115.698,85.865,114.218,85.865"/>
			<path clip-path="url(#SVGID_32_)" fill="#EA5843" d="M114.218,173.29c-1.48,0-2.68-1.196-2.68-2.676V126.21
				c0-1.481,1.2-2.676,2.68-2.676s2.68,1.196,2.68,2.676v44.404C116.898,172.094,115.698,173.29,114.218,173.29"/>
			<path clip-path="url(#SVGID_32_)" fill="#EA5843" d="M99.283,25.642c0,1.646-1.334,2.979-2.979,2.979
				c-1.646,0-2.98-1.333-2.98-2.979c0-1.646,1.334-2.98,2.98-2.98C97.949,22.662,99.283,23.996,99.283,25.642"/>
			<path clip-path="url(#SVGID_32_)" fill="#EA5843" d="M132.564,25.642c0,1.646-1.334,2.979-2.98,2.979
				c-1.645,0-2.979-1.333-2.979-2.979c0-1.646,1.334-2.98,2.979-2.98C131.23,22.662,132.564,23.996,132.564,25.642"/>
			<path clip-path="url(#SVGID_32_)" fill="#EA5843" d="M124.244,25.642c0,1.646-1.334,2.979-2.98,2.979
				c-1.645,0-2.979-1.333-2.979-2.979c0-1.646,1.334-2.98,2.979-2.98C122.909,22.662,124.244,23.996,124.244,25.642"/>
			<path clip-path="url(#SVGID_32_)" fill="#EA5843" d="M115.923,25.642c0,1.646-1.334,2.979-2.979,2.979
				c-1.646,0-2.98-1.333-2.98-2.979c0-1.646,1.334-2.98,2.98-2.98C114.589,22.662,115.923,23.996,115.923,25.642"/>
			<path clip-path="url(#SVGID_32_)" fill="#EA5843" d="M107.603,25.642c0,1.646-1.334,2.979-2.979,2.979
				c-1.646,0-2.98-1.333-2.98-2.979c0-1.646,1.334-2.98,2.98-2.98C106.269,22.662,107.603,23.996,107.603,25.642"/>
			<path clip-path="url(#SVGID_32_)" fill="#EA5843" d="M98.572,126.726c-1.48,0-2.68-1.196-2.68-2.676v-17.68h-7.252
				c-0.957,0-1.843-0.508-2.32-1.338c-0.479-0.83-0.479-1.854,0.003-2.683l9.931-17.111c0.475-0.815,1.338-1.32,2.28-1.335
				c0.755-0.1,1.82,0.471,2.318,1.271l10.282,16.621c0.778,1.263,0.389,2.915-0.87,3.693c-1.26,0.763-2.912,0.382-3.69-0.867
				l-7.927-12.828l-5.352,9.221h5.277c1.48,0,2.68,1.2,2.68,2.68v20.356C101.252,125.529,100.052,126.726,98.572,126.726"/>
			<path clip-path="url(#SVGID_32_)" fill="#EA5843" d="M129.86,126.726c-0.926,0-1.787-0.478-2.28-1.263l-10.278-16.618
				c-0.777-1.263-0.389-2.915,0.871-3.693c1.255-0.763,2.911-0.382,3.689,0.867l7.923,12.82l5.352-9.224h-5.277
				c-1.48,0-2.676-1.196-2.676-2.676V86.583c0-1.481,1.196-2.681,2.676-2.681c1.481,0,2.676,1.2,2.676,2.681v17.679h7.259
				c0.957,0,1.846,0.508,2.325,1.338c0.478,0.829,0.471,1.854-0.008,2.683l-9.934,17.111
				C131.699,126.225,130.757,126.807,129.86,126.726"/>
		</g>
	</g>
</g>
<g>
	<g>
		<defs>
			<rect id="SVGID_33_" x="19" y="-14" width="207.737" height="207.737"/>
		</defs>
		<clipPath id="SVGID_34_">
			<use xlink:href="#SVGID_33_"  overflow="visible"/>
		</clipPath>
		<g clip-path="url(#SVGID_34_)">
			<defs>
				<rect id="SVGID_35_" x="19" y="-14" width="207.737" height="207.737"/>
			</defs>
			<clipPath id="SVGID_36_">
				<use xlink:href="#SVGID_35_"  overflow="visible"/>
			</clipPath>
			<path clip-path="url(#SVGID_36_)" fill="#EA5843" d="M162.817,172.387H118.76l2.775-4.448c1.7-2.719,2.597-5.802,2.597-8.91
				c0-9.34-7.596-16.945-16.936-16.945s-16.94,7.604-16.94,16.945c0,3.1,0.897,6.184,2.597,8.918l2.771,4.44H51.568
				c-6.504,0-11.795-5.291-11.795-11.792v-44.316l4.488,2.905c2.763,1.786,5.932,2.734,9.158,2.734c9.34,0,16.94-7.603,16.94-16.944
				s-7.6-16.94-16.94-16.94c-3.23,0-6.399,0.941-9.158,2.723l-4.488,2.897V49.346c0-6.504,5.291-11.795,11.795-11.795h34.16
				c-0.848-2.398-1.29-4.914-1.29-7.441c0-12.55,10.209-22.758,22.758-22.758c12.546,0,22.755,10.209,22.755,22.758
				c0,2.528-0.443,5.044-1.291,7.441h34.156c6.5,0,11.791,5.291,11.791,11.795v34.582c2.727-1.128,5.632-1.712,8.602-1.712
				c12.546,0,22.755,10.208,22.755,22.758c0,12.546-10.209,22.755-22.755,22.755c-2.97,0-5.875-0.584-8.602-1.713v34.579
				C174.608,167.096,169.317,172.387,162.817,172.387 M128.628,166.576h34.189c3.294,0,5.982-2.686,5.982-5.981v-45.16l4.601,3.294
				c2.912,2.086,6.305,3.189,9.811,3.189c9.34,0,16.945-7.603,16.945-16.944s-7.604-16.94-16.945-16.94
				c-3.506,0-6.906,1.1-9.82,3.181l-4.592,3.286V49.346c0-3.295-2.687-5.976-5.982-5.976h-43.963l2.731-4.435
				c1.668-2.71,2.548-5.762,2.548-8.825c0-9.34-7.596-16.94-16.936-16.94s-16.94,7.6-16.94,16.94c0,3.063,0.88,6.115,2.548,8.825
				l2.731,4.435H51.568c-3.295,0-5.976,2.682-5.976,5.976v34.278c2.499-0.929,5.145-1.408,7.827-1.408
				c12.55,0,22.758,10.208,22.758,22.758c0,12.546-10.208,22.755-22.758,22.755c-2.678,0-5.324-0.479-7.827-1.404v34.27
				c0,3.295,2.682,5.981,5.976,5.981h34.193c-0.873-2.435-1.323-4.983-1.323-7.547c0-12.546,10.209-22.755,22.758-22.755
				c12.546,0,22.755,10.209,22.755,22.755C129.952,161.593,129.5,164.141,128.628,166.576"/>
		</g>
	</g>
</g>
</svg>
