<?xml version="1.0" encoding="utf-8"?>
<!-- Generator: Adobe Illustrator 17.0.0, SVG Export Plug-In . SVG Version: 6.00 Build 0)  -->
<!DOCTYPE svg PUBLIC "-//W3C//DTD SVG 1.1//EN" "http://www.w3.org/Graphics/SVG/1.1/DTD/svg11.dtd">
<svg version="1.1" id="Layer_1" xmlns="http://www.w3.org/2000/svg" xmlns:xlink="http://www.w3.org/1999/xlink" x="0px" y="0px"
	 width="229.116px" height="181.416px" viewBox="0 0 229.116 181.416" enable-background="new 0 0 229.116 181.416"
	 xml:space="preserve">
<g display="none">
	<g display="inline">
		<defs>
			<rect id="SVGID_1_" x="-26" y="-49.46" width="283.46" height="283.46"/>
		</defs>
		<clipPath id="SVGID_2_">
			<use xlink:href="#SVGID_1_"  overflow="visible"/>
		</clipPath>
		<path clip-path="url(#SVGID_2_)" fill="#EA5843" d="M225.789,181.416h-16.931c-1.84,0-3.327-1.486-3.327-3.326V6.446
			c0-1.84,1.487-3.331,3.327-3.331h16.931c1.84,0,3.327,1.491,3.327,3.331V178.09C229.116,179.93,227.629,181.416,225.789,181.416
			 M212.185,174.763h10.277V9.778h-10.277V174.763z"/>
	</g>
	<g display="inline">
		<defs>
			<rect id="SVGID_3_" x="-26" y="-49.46" width="283.46" height="283.46"/>
		</defs>
		<clipPath id="SVGID_4_">
			<use xlink:href="#SVGID_3_"  overflow="visible"/>
		</clipPath>
		<path clip-path="url(#SVGID_4_)" fill="#EA5843" d="M144.284,181.416h-16.931c-1.84,0-3.327-1.486-3.327-3.326V6.446
			c0-1.84,1.487-3.331,3.327-3.331h16.931c1.84,0,3.326,1.491,3.326,3.331V178.09C147.61,179.93,146.124,181.416,144.284,181.416
			 M130.68,174.763h10.277V9.778H130.68V174.763z"/>
	</g>
	<g display="inline">
		<defs>
			<rect id="SVGID_5_" x="-26" y="-49.46" width="283.46" height="283.46"/>
		</defs>
		<clipPath id="SVGID_6_">
			<use xlink:href="#SVGID_5_"  overflow="visible"/>
		</clipPath>
		<path clip-path="url(#SVGID_6_)" fill="#EA5843" d="M207.359,35.458h-62.866c-1.791,0-3.238-1.492-3.238-3.332
			c0-1.839,1.447-3.331,3.238-3.331h62.866c1.791,0,3.238,1.492,3.238,3.331C210.597,33.966,209.15,35.458,207.359,35.458"/>
	</g>
	<g display="inline">
		<defs>
			<rect id="SVGID_7_" x="-26" y="-49.46" width="283.46" height="283.46"/>
		</defs>
		<clipPath id="SVGID_8_">
			<use xlink:href="#SVGID_7_"  overflow="visible"/>
		</clipPath>
		<path clip-path="url(#SVGID_8_)" fill="#EA5843" d="M207.359,100.041h-62.866c-1.791,0-3.238-1.491-3.238-3.331
			s1.447-3.332,3.238-3.332h62.866c1.791,0,3.238,1.492,3.238,3.332S209.15,100.041,207.359,100.041"/>
	</g>
	<g display="inline">
		<defs>
			<rect id="SVGID_9_" x="-26" y="-49.46" width="283.46" height="283.46"/>
		</defs>
		<clipPath id="SVGID_10_">
			<use xlink:href="#SVGID_9_"  overflow="visible"/>
		</clipPath>
		<path clip-path="url(#SVGID_10_)" fill="#EA5843" d="M37.08,181.426c-2.263,0-19.408-0.316-28.733-9.516
			c-3.982-3.93-6.003-8.865-6.003-14.682c0-28.798,21.211-31.409,21.429-31.428l9.074-0.019L124.992,33.4
			c1.301-1.311,3.41-1.306,4.712-0.005c1.301,1.296,1.31,3.406,0.009,4.706l-93.126,93.358c-0.622,0.632-1.473,0.976-2.356,0.976
			H24.126c-0.251,0.055-15.119,2.156-15.119,24.793c0,4.023,1.315,7.276,4.014,9.943c7.843,7.722,24.147,7.685,24.24,7.592h24.797
			l62.925-63.57c1.291-1.311,3.401-1.311,4.711-0.029c1.311,1.301,1.32,3.402,0.029,4.712l-63.911,64.555
			c-0.622,0.633-1.477,0.985-2.364,0.985h-26.14C37.27,181.416,37.196,181.426,37.08,181.426"/>
	</g>
</g>
<g>
	<g>
		<defs>
			<rect id="SVGID_11_" x="4" y="-21.188" width="227.792" height="227.792"/>
		</defs>
		<clipPath id="SVGID_12_">
			<use xlink:href="#SVGID_11_"  overflow="visible"/>
		</clipPath>
		<g clip-path="url(#SVGID_12_)">
			<defs>
				<rect id="SVGID_13_" x="4" y="-21.188" width="227.792" height="227.792"/>
			</defs>
			<clipPath id="SVGID_14_">
				<use xlink:href="#SVGID_13_"  overflow="visible"/>
			</clipPath>
			<path clip-path="url(#SVGID_14_)" fill="#EA5843" d="M178.144,71.843c-0.898,0-1.462-0.035-1.577-0.04l-23.358,0.011
				c-2.28,0-4.123-1.848-4.123-4.129c0-2.281,1.843-4.129,4.123-4.129h23.646c0.391,0.04,11.978,0.673,18.992-5.926
				c3.685-3.456,5.551-8.465,5.551-14.898c0-6.472-1.877-11.529-5.575-15.024c-6.956-6.582-18.347-6.041-18.508-6.024L31.958,21.69
				c-2.281,0-4.129-1.848-4.129-4.129c0-2.281,1.848-4.129,4.129-4.129h145.116c0.368-0.023,14.754-0.806,24.37,8.229
				c5.448,5.12,8.201,12.209,8.201,21.072c0,8.828-2.753,15.883-8.201,20.962C193.497,71.117,182.256,71.843,178.144,71.843"/>
			<path clip-path="url(#SVGID_14_)" fill="#EA5843" d="M178.121,171.902c-0.749,0-1.197-0.023-1.301-0.023H31.958
				c-2.281,0-4.129-1.843-4.129-4.124c0-2.28,1.848-4.123,4.129-4.123h145.116c0.403,0.012,11.771,0.576,18.75-6.023
				c3.697-3.502,5.575-8.558,5.575-15.031c0-6.45-1.878-11.472-5.586-14.926c-6.958-6.52-18.601-5.956-18.67-5.897h-9.917
				c-2.28,0-4.123-1.843-4.123-4.123c0-2.281,1.843-4.123,4.123-4.123h9.63c0.299-0.069,14.938-0.91,24.589,8.108
				c5.448,5.079,8.202,12.139,8.202,20.961c0,8.869-2.753,15.952-8.202,21.077C193.394,171.222,181.968,171.902,178.121,171.902"/>
			<path clip-path="url(#SVGID_14_)" fill="#EA5843" d="M58.811,122.031c-3.916,0-15.22-0.714-23.203-8.154
				c-5.442-5.091-8.2-12.139-8.2-20.968c0-8.863,2.758-15.946,8.206-21.066c9.611-9.041,24.026-8.28,24.63-8.223l22.27-0.011
				c2.28,0,4.129,1.848,4.129,4.129c0,2.281-1.849,4.129-4.129,4.129H59.991c-0.323-0.017-11.777-0.57-18.756,6.024
				c-3.697,3.495-5.569,8.546-5.569,15.019c0,6.427,1.866,11.443,5.546,14.898c7.02,6.588,18.567,5.919,18.727,5.931h9.894
				c2.281,0,4.129,1.843,4.129,4.123c0,2.28-1.848,4.123-4.129,4.123H60.21C60.152,121.996,59.651,122.031,58.811,122.031"/>
			<path clip-path="url(#SVGID_14_)" fill="#EA5843" d="M118.529,142.855c-13.78,0-23.162-4.446-27.878-13.211
				c-14.173-26.342,22.851-82.938,24.434-85.334l3.444-5.218l3.444,5.218c1.583,2.396,38.606,58.992,24.439,85.334
				C141.691,138.409,132.316,142.855,118.529,142.855 M118.529,54.325c-11.091,18.307-29.439,55.002-20.605,71.415
				c3.208,5.966,9.952,8.868,20.605,8.868c10.653,0,17.403-2.902,20.605-8.879C147.968,109.327,129.621,72.632,118.529,54.325"/>
		</g>
	</g>
</g>
</svg>
