<?xml version="1.0" encoding="utf-8"?>
<!-- Generator: Adobe Illustrator 17.0.0, SVG Export Plug-In . SVG Version: 6.00 Build 0)  -->
<!DOCTYPE svg PUBLIC "-//W3C//DTD SVG 1.1//EN" "http://www.w3.org/Graphics/SVG/1.1/DTD/svg11.dtd">
<svg version="1.1" id="Layer_1" xmlns="http://www.w3.org/2000/svg" xmlns:xlink="http://www.w3.org/1999/xlink" x="0px" y="0px"
	 width="229.116px" height="181.416px" viewBox="0 0 229.116 181.416" enable-background="new 0 0 229.116 181.416"
	 xml:space="preserve">
<g display="none">
	<g display="inline">
		<defs>
			<rect id="SVGID_1_" x="-26" y="-49.46" width="283.46" height="283.46"/>
		</defs>
		<clipPath id="SVGID_2_">
			<use xlink:href="#SVGID_1_"  overflow="visible"/>
		</clipPath>
		<path clip-path="url(#SVGID_2_)" fill="#EA5843" d="M225.789,181.416h-16.931c-1.84,0-3.327-1.486-3.327-3.326V6.446
			c0-1.84,1.487-3.331,3.327-3.331h16.931c1.84,0,3.327,1.491,3.327,3.331V178.09C229.116,179.93,227.629,181.416,225.789,181.416
			 M212.185,174.763h10.277V9.778h-10.277V174.763z"/>
	</g>
	<g display="inline">
		<defs>
			<rect id="SVGID_3_" x="-26" y="-49.46" width="283.46" height="283.46"/>
		</defs>
		<clipPath id="SVGID_4_">
			<use xlink:href="#SVGID_3_"  overflow="visible"/>
		</clipPath>
		<path clip-path="url(#SVGID_4_)" fill="#EA5843" d="M144.284,181.416h-16.931c-1.84,0-3.327-1.486-3.327-3.326V6.446
			c0-1.84,1.487-3.331,3.327-3.331h16.931c1.84,0,3.326,1.491,3.326,3.331V178.09C147.61,179.93,146.124,181.416,144.284,181.416
			 M130.68,174.763h10.277V9.778H130.68V174.763z"/>
	</g>
	<g display="inline">
		<defs>
			<rect id="SVGID_5_" x="-26" y="-49.46" width="283.46" height="283.46"/>
		</defs>
		<clipPath id="SVGID_6_">
			<use xlink:href="#SVGID_5_"  overflow="visible"/>
		</clipPath>
		<path clip-path="url(#SVGID_6_)" fill="#EA5843" d="M207.359,35.458h-62.866c-1.791,0-3.238-1.492-3.238-3.332
			c0-1.839,1.447-3.331,3.238-3.331h62.866c1.791,0,3.238,1.492,3.238,3.331C210.597,33.966,209.15,35.458,207.359,35.458"/>
	</g>
	<g display="inline">
		<defs>
			<rect id="SVGID_7_" x="-26" y="-49.46" width="283.46" height="283.46"/>
		</defs>
		<clipPath id="SVGID_8_">
			<use xlink:href="#SVGID_7_"  overflow="visible"/>
		</clipPath>
		<path clip-path="url(#SVGID_8_)" fill="#EA5843" d="M207.359,100.041h-62.866c-1.791,0-3.238-1.491-3.238-3.331
			s1.447-3.332,3.238-3.332h62.866c1.791,0,3.238,1.492,3.238,3.332S209.15,100.041,207.359,100.041"/>
	</g>
	<g display="inline">
		<defs>
			<rect id="SVGID_9_" x="-26" y="-49.46" width="283.46" height="283.46"/>
		</defs>
		<clipPath id="SVGID_10_">
			<use xlink:href="#SVGID_9_"  overflow="visible"/>
		</clipPath>
		<path clip-path="url(#SVGID_10_)" fill="#EA5843" d="M37.08,181.426c-2.263,0-19.408-0.316-28.733-9.516
			c-3.982-3.93-6.003-8.865-6.003-14.682c0-28.798,21.211-31.409,21.429-31.428l9.074-0.019L124.992,33.4
			c1.301-1.311,3.41-1.306,4.712-0.005c1.301,1.296,1.31,3.406,0.009,4.706l-93.126,93.358c-0.622,0.632-1.473,0.976-2.356,0.976
			H24.126c-0.251,0.055-15.119,2.156-15.119,24.793c0,4.023,1.315,7.276,4.014,9.943c7.843,7.722,24.147,7.685,24.24,7.592h24.797
			l62.925-63.57c1.291-1.311,3.401-1.311,4.711-0.029c1.311,1.301,1.32,3.402,0.029,4.712l-63.911,64.555
			c-0.622,0.633-1.477,0.985-2.364,0.985h-26.14C37.27,181.416,37.196,181.426,37.08,181.426"/>
	</g>
</g>
<g>
	<g>
		<defs>
			<rect id="SVGID_11_" x="11.324" y="-12.942" width="208.734" height="208.734"/>
		</defs>
		<clipPath id="SVGID_12_">
			<use xlink:href="#SVGID_11_"  overflow="visible"/>
		</clipPath>
		<g clip-path="url(#SVGID_12_)">
			<defs>
				<rect id="SVGID_13_" x="11.324" y="-12.942" width="208.734" height="208.734"/>
			</defs>
			<clipPath id="SVGID_14_">
				<use xlink:href="#SVGID_13_"  overflow="visible"/>
			</clipPath>
			<path clip-path="url(#SVGID_14_)" fill="#EA5843" d="M174.889,163.875H56.493c-5.722,0-10.379-4.652-10.379-10.37V18.304
				c0-5.719,4.656-10.374,10.379-10.374h118.396c5.728,0,10.379,4.655,10.379,10.374v135.201
				C185.268,159.223,180.617,163.875,174.889,163.875 M56.493,14.307c-2.205,0-4.002,1.792-4.002,3.998v135.201
				c0,2.205,1.797,4.001,4.002,4.001h118.396c2.205,0,4.011-1.796,4.011-4.001V18.304c0-2.205-1.806-3.998-4.011-3.998H56.493z"/>
			<path clip-path="url(#SVGID_14_)" fill="#EA5843" d="M169.118,174.92H62.264c-1.761,0-3.189-1.423-3.189-3.184V160.69
				c0-1.761,1.428-3.183,3.189-3.183h106.853c1.761,0,3.183,1.423,3.183,3.183v11.046
				C172.301,173.497,170.879,174.92,169.118,174.92 M65.452,168.553h100.482v-4.678H65.452V168.553z"/>
			<path clip-path="url(#SVGID_14_)" fill="#EA5843" d="M182.084,44.015H49.302c-1.761,0-3.189-1.427-3.189-3.189
				c0-1.761,1.428-3.189,3.189-3.189h132.782c1.761,0,3.183,1.428,3.183,3.189C185.267,42.588,183.846,44.015,182.084,44.015"/>
			<path clip-path="url(#SVGID_14_)" fill="#EA5843" d="M115.691,147.333c-24.781,0-44.943-20.161-44.943-44.938
				c0-24.776,20.161-44.938,44.943-44.938s44.943,20.161,44.943,44.938C160.634,127.172,140.472,147.333,115.691,147.333
				 M115.691,63.833c-21.264,0-38.566,17.298-38.566,38.561c0,21.264,17.302,38.571,38.566,38.571
				c21.268,0,38.574-17.306,38.574-38.571C154.265,81.131,136.959,63.833,115.691,63.833"/>
			<path clip-path="url(#SVGID_14_)" fill="#EA5843" d="M115.691,137.07c-19.121,0-34.675-15.555-34.675-34.675
				S96.57,67.72,115.691,67.72c19.116,0,34.671,15.554,34.671,34.675S134.807,137.07,115.691,137.07 M115.691,74.096
				c-15.603,0-28.298,12.695-28.298,28.298c0,15.608,12.695,28.308,28.298,28.308s28.303-12.7,28.303-28.308
				C143.994,86.791,131.294,74.096,115.691,74.096"/>
		</g>
	</g>
</g>
</svg>
