<?xml version="1.0" encoding="utf-8"?>
<!-- Generator: Adobe Illustrator 17.0.0, SVG Export Plug-In . SVG Version: 6.00 Build 0)  -->
<!DOCTYPE svg PUBLIC "-//W3C//DTD SVG 1.1//EN" "http://www.w3.org/Graphics/SVG/1.1/DTD/svg11.dtd">
<svg version="1.1" id="Layer_1" xmlns="http://www.w3.org/2000/svg" xmlns:xlink="http://www.w3.org/1999/xlink" x="0px" y="0px"
	 width="229.116px" height="181.416px" viewBox="0 0 229.116 181.416" enable-background="new 0 0 229.116 181.416"
	 xml:space="preserve">
<g display="none">
	<g display="inline">
		<defs>
			<rect id="SVGID_1_" x="-26" y="-49.46" width="283.46" height="283.46"/>
		</defs>
		<clipPath id="SVGID_2_">
			<use xlink:href="#SVGID_1_"  overflow="visible"/>
		</clipPath>
		<path clip-path="url(#SVGID_2_)" fill="#EA5843" d="M225.789,181.416h-16.931c-1.84,0-3.327-1.486-3.327-3.326V6.446
			c0-1.84,1.487-3.331,3.327-3.331h16.931c1.84,0,3.327,1.491,3.327,3.331V178.09C229.116,179.93,227.629,181.416,225.789,181.416
			 M212.185,174.763h10.277V9.778h-10.277V174.763z"/>
	</g>
	<g display="inline">
		<defs>
			<rect id="SVGID_3_" x="-26" y="-49.46" width="283.46" height="283.46"/>
		</defs>
		<clipPath id="SVGID_4_">
			<use xlink:href="#SVGID_3_"  overflow="visible"/>
		</clipPath>
		<path clip-path="url(#SVGID_4_)" fill="#EA5843" d="M144.284,181.416h-16.931c-1.84,0-3.327-1.486-3.327-3.326V6.446
			c0-1.84,1.487-3.331,3.327-3.331h16.931c1.84,0,3.326,1.491,3.326,3.331V178.09C147.61,179.93,146.124,181.416,144.284,181.416
			 M130.68,174.763h10.277V9.778H130.68V174.763z"/>
	</g>
	<g display="inline">
		<defs>
			<rect id="SVGID_5_" x="-26" y="-49.46" width="283.46" height="283.46"/>
		</defs>
		<clipPath id="SVGID_6_">
			<use xlink:href="#SVGID_5_"  overflow="visible"/>
		</clipPath>
		<path clip-path="url(#SVGID_6_)" fill="#EA5843" d="M207.359,35.458h-62.866c-1.791,0-3.238-1.492-3.238-3.332
			c0-1.839,1.447-3.331,3.238-3.331h62.866c1.791,0,3.238,1.492,3.238,3.331C210.597,33.966,209.15,35.458,207.359,35.458"/>
	</g>
	<g display="inline">
		<defs>
			<rect id="SVGID_7_" x="-26" y="-49.46" width="283.46" height="283.46"/>
		</defs>
		<clipPath id="SVGID_8_">
			<use xlink:href="#SVGID_7_"  overflow="visible"/>
		</clipPath>
		<path clip-path="url(#SVGID_8_)" fill="#EA5843" d="M207.359,100.041h-62.866c-1.791,0-3.238-1.491-3.238-3.331
			s1.447-3.332,3.238-3.332h62.866c1.791,0,3.238,1.492,3.238,3.332S209.15,100.041,207.359,100.041"/>
	</g>
	<g display="inline">
		<defs>
			<rect id="SVGID_9_" x="-26" y="-49.46" width="283.46" height="283.46"/>
		</defs>
		<clipPath id="SVGID_10_">
			<use xlink:href="#SVGID_9_"  overflow="visible"/>
		</clipPath>
		<path clip-path="url(#SVGID_10_)" fill="#EA5843" d="M37.08,181.426c-2.263,0-19.408-0.316-28.733-9.516
			c-3.982-3.93-6.003-8.865-6.003-14.682c0-28.798,21.211-31.409,21.429-31.428l9.074-0.019L124.992,33.4
			c1.301-1.311,3.41-1.306,4.712-0.005c1.301,1.296,1.31,3.406,0.009,4.706l-93.126,93.358c-0.622,0.632-1.473,0.976-2.356,0.976
			H24.126c-0.251,0.055-15.119,2.156-15.119,24.793c0,4.023,1.315,7.276,4.014,9.943c7.843,7.722,24.147,7.685,24.24,7.592h24.797
			l62.925-63.57c1.291-1.311,3.401-1.311,4.711-0.029c1.311,1.301,1.32,3.402,0.029,4.712l-63.911,64.555
			c-0.622,0.633-1.477,0.985-2.364,0.985h-26.14C37.27,181.416,37.196,181.426,37.08,181.426"/>
	</g>
</g>
<g display="none">
	<g display="inline">
		<defs>
			<rect id="SVGID_11_" x="11.324" y="-12.942" width="208.734" height="208.734"/>
		</defs>
		<clipPath id="SVGID_12_">
			<use xlink:href="#SVGID_11_"  overflow="visible"/>
		</clipPath>
		<g clip-path="url(#SVGID_12_)">
			<defs>
				<rect id="SVGID_13_" x="11.324" y="-12.942" width="208.734" height="208.734"/>
			</defs>
			<clipPath id="SVGID_14_">
				<use xlink:href="#SVGID_13_"  overflow="visible"/>
			</clipPath>
			<path clip-path="url(#SVGID_14_)" fill="#EA5843" d="M174.889,163.875H56.493c-5.722,0-10.379-4.652-10.379-10.37V18.304
				c0-5.719,4.656-10.374,10.379-10.374h118.396c5.728,0,10.379,4.655,10.379,10.374v135.201
				C185.268,159.223,180.617,163.875,174.889,163.875 M56.493,14.307c-2.205,0-4.002,1.792-4.002,3.998v135.201
				c0,2.205,1.797,4.001,4.002,4.001h118.396c2.205,0,4.011-1.796,4.011-4.001V18.304c0-2.205-1.806-3.998-4.011-3.998H56.493z"/>
			<path clip-path="url(#SVGID_14_)" fill="#EA5843" d="M169.118,174.92H62.264c-1.761,0-3.189-1.423-3.189-3.184V160.69
				c0-1.761,1.428-3.183,3.189-3.183h106.853c1.761,0,3.183,1.423,3.183,3.183v11.046
				C172.301,173.497,170.879,174.92,169.118,174.92 M65.452,168.553h100.482v-4.678H65.452V168.553z"/>
			<path clip-path="url(#SVGID_14_)" fill="#EA5843" d="M182.084,44.015H49.302c-1.761,0-3.189-1.427-3.189-3.189
				c0-1.761,1.428-3.189,3.189-3.189h132.782c1.761,0,3.183,1.428,3.183,3.189C185.267,42.588,183.846,44.015,182.084,44.015"/>
			<path clip-path="url(#SVGID_14_)" fill="#EA5843" d="M115.691,147.333c-24.781,0-44.943-20.161-44.943-44.938
				c0-24.776,20.161-44.938,44.943-44.938s44.943,20.161,44.943,44.938C160.634,127.172,140.472,147.333,115.691,147.333
				 M115.691,63.833c-21.264,0-38.566,17.298-38.566,38.561c0,21.264,17.302,38.571,38.566,38.571
				c21.268,0,38.574-17.306,38.574-38.571C154.265,81.131,136.959,63.833,115.691,63.833"/>
			<path clip-path="url(#SVGID_14_)" fill="#EA5843" d="M115.691,137.07c-19.121,0-34.675-15.555-34.675-34.675
				S96.57,67.72,115.691,67.72c19.116,0,34.671,15.554,34.671,34.675S134.807,137.07,115.691,137.07 M115.691,74.096
				c-15.603,0-28.298,12.695-28.298,28.298c0,15.608,12.695,28.308,28.298,28.308s28.303-12.7,28.303-28.308
				C143.994,86.791,131.294,74.096,115.691,74.096"/>
		</g>
	</g>
</g>
<g>
	<g>
		<defs>
			<rect id="SVGID_15_" x="0.162" y="-26.24" width="233.896" height="233.896"/>
		</defs>
		<clipPath id="SVGID_16_">
			<use xlink:href="#SVGID_15_"  overflow="visible"/>
		</clipPath>
		<g clip-path="url(#SVGID_16_)">
			<defs>
				<rect id="SVGID_17_" x="0.162" y="-26.24" width="233.896" height="233.896"/>
			</defs>
			<clipPath id="SVGID_18_">
				<use xlink:href="#SVGID_17_"  overflow="visible"/>
			</clipPath>
			<path clip-path="url(#SVGID_18_)" fill="#EA5843" d="M188.897,167.545c-3.38,0-6.056-1.064-7.973-3.164
				c-3.197-3.509-2.838-8.467-2.784-9.016l-0.007-39.978c0-5.507,3.659-15.929,17.51-15.929c5.189,0,9.233,1.582,12.023,4.704
				c4.606,5.161,3.828,12.573,3.794,12.884c-0.373,4.24-3.374,12.05-11.902,13.304v24.744c0.048,0.352,0.468,5.649-2.838,9.307
				C194.832,166.489,192.196,167.545,188.897,167.545 M195.644,104.313c-12.511,0-12.66,10.621-12.66,11.075v40.202
				c-0.007,0.25-0.264,3.577,1.551,5.541c1.883,2.053,6.646,2.133,8.569,0.027c1.598-1.748,1.706-4.803,1.612-5.833l-0.007-29.655
				h2.426c8.372,0,9.408-8.182,9.496-9.117c0.014-0.095,0.563-5.656-2.607-9.179C202.2,105.343,199.376,104.313,195.644,104.313"/>
			<path clip-path="url(#SVGID_18_)" fill="#EA5843" d="M188.796,175.884c-5.494,0-7.485-4.383-7.485-7.329v-4.904
				c0-1.342,1.083-2.426,2.424-2.426c1.342,0,2.426,1.084,2.426,2.426v4.904c0.034,1.111,0.515,2.479,2.635,2.479
				c2.431,0,2.696-2.669,2.723-3.481v-3.901c0-1.342,1.083-2.426,2.424-2.426c1.342,0,2.426,1.084,2.426,2.426v3.948
				C196.328,170.952,194.269,175.884,188.796,175.884"/>
			<path clip-path="url(#SVGID_18_)" fill="#EA5843" d="M47.045,167.545c-3.298,0-5.926-1.056-7.82-3.143
				c-3.309-3.651-2.892-8.954-2.832-9.544l-0.013-24.507c-8.525-1.253-11.525-9.063-11.901-13.365
				c-0.031-0.25-0.813-7.661,3.8-12.823c2.784-3.122,6.828-4.704,12.017-4.704c13.856,0,17.517,10.422,17.517,15.929v40.202
				c0.04,0.325,0.403,5.283-2.798,8.792C53.104,166.482,50.421,167.545,47.045,167.545 M40.295,104.313
				c-3.746,0-6.571,1.036-8.396,3.082c-3.126,3.502-2.598,9.049-2.591,9.11c0.095,0.983,1.128,9.165,9.5,9.165h2.428v29.426
				c-0.105,1.259,0.007,4.314,1.602,6.062c1.923,2.12,6.675,2.026,8.572-0.027c1.812-1.964,1.558-5.291,1.555-5.325l-0.01-40.418
				C52.946,114.263,52.492,104.313,40.295,104.313"/>
			<path clip-path="url(#SVGID_18_)" fill="#EA5843" d="M190.353,104.983c-1.341,0-2.424-1.083-2.424-2.424V91.863
				c-0.014-0.549-0.536-14.547-17.097-14.547H65.114c-16.558,0-17.081,13.998-17.094,14.594v10.649c0,1.341-1.088,2.424-2.428,2.424
				s-2.428-1.083-2.428-2.424V91.863c0.003-0.23,0.549-19.403,21.951-19.403h105.718c21.398,0,21.946,19.173,21.946,19.366v10.734
				C192.778,103.9,191.694,104.983,190.353,104.983"/>
			<path clip-path="url(#SVGID_18_)" fill="#EA5843" d="M180.559,141.338c-1.342,0-2.425-1.083-2.425-2.425
				c0-3.59-5.168-4.01-5.392-4.023H63.027c-0.054,0.013-5.215,0.433-5.215,4.023c0,1.342-1.088,2.425-2.429,2.425
				c-1.341,0-2.428-1.083-2.428-2.425c0-6.51,6.486-8.65,9.917-8.874h110.038c3.591,0.224,10.073,2.364,10.073,8.874
				C182.983,140.255,181.9,141.338,180.559,141.338"/>
			<path clip-path="url(#SVGID_18_)" fill="#EA5843" d="M180.531,145.409H55.407c-1.341,0-2.428-1.083-2.428-2.425
				c0-1.341,1.088-2.425,2.428-2.425h125.124c1.342,0,2.425,1.084,2.425,2.425C182.957,144.326,181.873,145.409,180.531,145.409"/>
			<path clip-path="url(#SVGID_18_)" fill="#EA5843" d="M181.629,163.583H54.314c-1.342,0-2.428-1.083-2.428-2.425
				c0-1.341,1.087-2.425,2.428-2.425h127.315c1.341,0,2.424,1.084,2.424,2.425C184.053,162.5,182.97,163.583,181.629,163.583"/>
			<path clip-path="url(#SVGID_18_)" fill="#EA5843" d="M47.147,175.884c-5.473,0-7.526-4.932-7.573-8.251v-3.982
				c0-1.342,1.088-2.426,2.428-2.426c1.342,0,2.428,1.084,2.428,2.426v3.948c0.024,0.766,0.288,3.434,2.716,3.434
				c2.374,0,2.631-1.734,2.631-2.479v-4.904c0-1.342,1.088-2.426,2.428-2.426c1.341,0,2.428,1.084,2.428,2.426v4.904
				C54.635,171.501,52.64,175.884,47.147,175.884"/>
			<path clip-path="url(#SVGID_18_)" fill="#EA5843" d="M117.424,134.889c-1.341,0-2.428-1.083-2.428-2.424V74.888
				c0-1.342,1.088-2.428,2.428-2.428c1.341,0,2.428,1.087,2.428,2.428v57.577C119.853,133.806,118.765,134.889,117.424,134.889"/>
			<path clip-path="url(#SVGID_18_)" fill="#EA5843" d="M78.712,77.316c-1.341,0-2.428-1.087-2.428-2.428V49.28
				c0-1.342,1.088-2.428,2.428-2.428c1.341,0,2.428,1.087,2.428,2.428v25.608C81.141,76.229,80.053,77.316,78.712,77.316"/>
			<path clip-path="url(#SVGID_18_)" fill="#EA5843" d="M78.753,51.708c-5.473,0-7.526-4.938-7.573-8.254v-3.986
				c0-1.341,1.088-2.428,2.428-2.428c1.342,0,2.428,1.088,2.428,2.428v3.952c0.024,0.766,0.288,3.431,2.716,3.431
				c2.123,0,2.604-1.365,2.635-2.51v-4.873c0-1.341,1.088-2.428,2.428-2.428c1.342,0,2.428,1.088,2.428,2.428v4.904
				C86.245,47.322,84.25,51.708,78.753,51.708"/>
			<path clip-path="url(#SVGID_18_)" fill="#EA5843" d="M94.397,41.896h-31.37c-0.748,0-1.456-0.346-1.917-0.938
				c-0.46-0.592-0.62-1.365-0.437-2.09l8.142-31.88c0.278-1.077,1.243-1.829,2.354-1.829h14.889c1.103,0,2.069,0.745,2.347,1.815
				l8.338,31.88c0.193,0.724,0.034,1.5-0.427,2.097C95.86,41.547,95.149,41.896,94.397,41.896 M66.154,37.04h25.1l-7.068-27.024
				h-11.13L66.154,37.04z"/>
		</g>
	</g>
</g>
</svg>
