<?xml version="1.0" encoding="utf-8"?>
<!-- Generator: Adobe Illustrator 17.0.0, SVG Export Plug-In . SVG Version: 6.00 Build 0)  -->
<!DOCTYPE svg PUBLIC "-//W3C//DTD SVG 1.1//EN" "http://www.w3.org/Graphics/SVG/1.1/DTD/svg11.dtd">
<svg version="1.1" id="Layer_1" xmlns="http://www.w3.org/2000/svg" xmlns:xlink="http://www.w3.org/1999/xlink" x="0px" y="0px"
	 width="229.116px" height="181.416px" viewBox="0 0 229.116 181.416" enable-background="new 0 0 229.116 181.416"
	 xml:space="preserve">
<g display="none">
	<g display="inline">
		<defs>
			<rect id="SVGID_1_" x="11" y="-12.792" width="210.396" height="210.396"/>
		</defs>
		<clipPath id="SVGID_2_">
			<use xlink:href="#SVGID_1_"  overflow="visible"/>
		</clipPath>
		<g clip-path="url(#SVGID_2_)">
			<defs>
				<rect id="SVGID_3_" x="11" y="-12.792" width="210.396" height="210.396"/>
			</defs>
			<clipPath id="SVGID_4_">
				<use xlink:href="#SVGID_3_"  overflow="visible"/>
			</clipPath>
			<path clip-path="url(#SVGID_4_)" fill="#EA5843" d="M119.719,121.487c-28.409,0-34.363-36.155-34.419-36.522
				c-0.209-1.342,0.565-2.645,1.847-3.1c17.564-6.242,35.449-25.567,40.609-35.303c0.048-0.252,0.126-0.501,0.237-0.742
				c0.126-0.249,0.277-0.469,0.451-0.663c0.623-1.43,0.9-2.57,0.75-3.32c-0.324-1.619-0.892-2.768-1.509-3.08
				c-0.497-0.253-1.263-0.012-1.484,0.102c-0.793,0.383-1.737,0.379-2.518-0.019c-0.782-0.391-1.362-1.113-1.532-1.971
				c-0.15-0.703-1.772-7.086-10.509-7.086c-9.364,0-12.159,7.434-12.188,7.509c-0.399,1.101-1.433,1.844-2.605,1.867
				c-3.036,0.059-5.179,0.691-5.732,1.686c-0.549,0.992,0.209,2.846,0.549,3.408c0.802,1.342,0.367,3.079-0.971,3.884
				c-1.346,0.818-3.076,0.376-3.885-0.971c-0.301-0.501-2.878-5.022-0.644-9.061c1.445-2.613,4.402-4.125,8.804-4.512
				c1.757-3.179,6.518-9.472,16.672-9.472c8.709,0,13.25,4.86,15.128,8.875c0.995-0.051,2.172,0.083,3.34,0.648
				c2.361,1.125,3.916,3.509,4.627,7.079c0.276,1.381,0.039,3.091-0.623,5.045c13.565,8.145,15.689,24.406,15.776,25.133
				C149.865,73.354,148.476,121.487,119.719,121.487 M91.329,86.315c1.626,7.264,8.252,29.519,28.39,29.519
				c23.253,0,24.516-44.111,24.533-44.652c-0.032,0-1.927-13.462-12.571-20.261C124.65,63.061,107.136,79.749,91.329,86.315"/>
			<path clip-path="url(#SVGID_4_)" fill="#EA5843" d="M141.495,126.478c-4.54,0-10.005-1.777-16.004-7.319
				c-1.149-1.058-1.22-2.851-0.163-3.995c1.061-1.168,2.846-1.225,3.999-0.158c5.969,5.511,11.742,7.106,17.118,4.746
				c10.218-4.478,17.861-22.559,17.861-35.741c0-20.237-7.706-43.74-14.963-55.58c-6.688-10.944-19.526-9.182-20.079-9.096
				c-0.623,0.076-1.2-0.016-1.721-0.284c-9.017-4.639-17.683-5.666-25.768-3.06c-15.188,4.923-23.498,21.046-23.577,21.208
				C70.847,49.216,67.76,63.156,67.76,84.01c0,13.182,7.635,31.263,17.852,35.741c5.393,2.352,11.149,0.757,17.118-4.746
				c1.137-1.067,2.93-1.004,4,0.158c1.058,1.145,0.986,2.937-0.163,3.995c-9.676,8.946-17.983,8.061-23.222,5.78
				c-12.708-5.567-21.247-25.655-21.247-40.929c0-21.975,3.339-36.795,11.16-49.567c0.265-0.549,9.365-18.196,26.771-23.838
				c9.326-3.012,19.187-2.002,29.329,3.024c3.759-0.339,17.214-0.584,24.818,11.848c7.84,12.811,15.784,37.032,15.784,58.532
				c0,15.274-8.535,35.362-21.247,40.929C146.715,125.807,144.283,126.478,141.495,126.478"/>
			<path clip-path="url(#SVGID_4_)" fill="#EA5843" d="M151.326,177.232c-1.563,0-2.827-1.263-2.827-2.826v-34
				c0-1.563,1.264-2.826,2.827-2.826s2.827,1.263,2.827,2.826v34C154.153,175.97,152.889,177.232,151.326,177.232"/>
			<path clip-path="url(#SVGID_4_)" fill="#EA5843" d="M178.141,177.232H54.448c-1.564,0-2.831-1.263-2.831-2.826v-15.255
				c0-18.255,15.294-23.301,23.38-23.411h82.551c8.125,0.11,23.419,5.156,23.419,23.411v15.255
				C180.967,175.969,179.704,177.232,178.141,177.232 M57.278,171.579h118.036v-12.428c0-17.3-17.078-17.742-17.805-17.758H75.036
				c-0.679,0.016-17.758,0.56-17.758,17.758V171.579z"/>
			<path clip-path="url(#SVGID_4_)" fill="#EA5843" d="M81.254,177.232c-1.563,0-2.831-1.263-2.831-2.826v-34
				c0-1.563,1.268-2.826,2.831-2.826s2.83,1.263,2.83,2.826v34C84.084,175.97,82.817,177.232,81.254,177.232"/>
			<path clip-path="url(#SVGID_4_)" fill="#EA5843" d="M138.89,157.682H93.698c-1.563,0-2.83-1.263-2.83-2.827v-14.449
				c0-1.563,1.267-2.826,2.83-2.826c1.564,0,2.831,1.263,2.831,2.826v11.623h39.535v-12.294c0-1.562,1.264-2.826,2.826-2.826
				c1.563,0,2.827,1.263,2.827,2.826v15.121C141.717,156.419,140.453,157.682,138.89,157.682"/>
		</g>
	</g>
</g>
<g>
	<g>
		<defs>
			<rect id="SVGID_5_" x="9.72" y="-14.99" width="213.396" height="213.396"/>
		</defs>
		<clipPath id="SVGID_6_">
			<use xlink:href="#SVGID_5_"  overflow="visible"/>
		</clipPath>
		<g clip-path="url(#SVGID_6_)">
			<defs>
				<rect id="SVGID_7_" x="9.72" y="-14.99" width="213.396" height="213.396"/>
			</defs>
			<clipPath id="SVGID_8_">
				<use xlink:href="#SVGID_7_"  overflow="visible"/>
			</clipPath>
			<path clip-path="url(#SVGID_8_)" fill="#EA5843" d="M115.502,176.908c-47.066,0-85.36-38.294-85.36-85.36
				s38.294-85.36,85.36-85.36s85.36,38.294,85.36,85.36S162.568,176.908,115.502,176.908 M115.502,13.028
				c-43.298,0-78.52,35.222-78.52,78.52c0,43.297,35.222,78.529,78.52,78.529c43.297,0,78.529-35.231,78.529-78.529
				C194.031,48.25,158.799,13.028,115.502,13.028"/>
			<path clip-path="url(#SVGID_8_)" fill="#EA5843" d="M113.141,131.306H90.464V46.571h34.268c21.561,0,33.524,13.08,33.524,30.404
				s-11.963,30.032-33.524,30.032h-11.591V131.306z M123.606,88.07c7.728,0,11.84-4.122,11.84-11.095
				c0-6.983-4.112-11.219-11.84-11.219h-10.465V88.07H123.606z"/>
		</g>
	</g>
</g>
</svg>
