<?xml version="1.0" encoding="utf-8"?>
<!-- Generator: Adobe Illustrator 17.0.0, SVG Export Plug-In . SVG Version: 6.00 Build 0)  -->
<!DOCTYPE svg PUBLIC "-//W3C//DTD SVG 1.1//EN" "http://www.w3.org/Graphics/SVG/1.1/DTD/svg11.dtd">
<svg version="1.1" id="Layer_1" xmlns="http://www.w3.org/2000/svg" xmlns:xlink="http://www.w3.org/1999/xlink" x="0px" y="0px"
	 width="229.116px" height="181.416px" viewBox="0 0 229.116 181.416" enable-background="new 0 0 229.116 181.416"
	 xml:space="preserve">
<g display="none">
	<g display="inline">
		<defs>
			<rect id="SVGID_1_" x="11" y="-12.792" width="210.396" height="210.396"/>
		</defs>
		<clipPath id="SVGID_2_">
			<use xlink:href="#SVGID_1_"  overflow="visible"/>
		</clipPath>
		<g clip-path="url(#SVGID_2_)">
			<defs>
				<rect id="SVGID_3_" x="11" y="-12.792" width="210.396" height="210.396"/>
			</defs>
			<clipPath id="SVGID_4_">
				<use xlink:href="#SVGID_3_"  overflow="visible"/>
			</clipPath>
			<path clip-path="url(#SVGID_4_)" fill="#EA5843" d="M119.719,121.487c-28.409,0-34.363-36.155-34.419-36.522
				c-0.209-1.342,0.565-2.645,1.847-3.1c17.564-6.242,35.449-25.567,40.609-35.303c0.048-0.252,0.126-0.501,0.237-0.742
				c0.126-0.249,0.277-0.469,0.451-0.663c0.623-1.43,0.9-2.57,0.75-3.32c-0.324-1.619-0.892-2.768-1.509-3.08
				c-0.497-0.253-1.263-0.012-1.484,0.102c-0.793,0.383-1.737,0.379-2.518-0.019c-0.782-0.391-1.362-1.113-1.532-1.971
				c-0.15-0.703-1.772-7.086-10.509-7.086c-9.364,0-12.159,7.434-12.188,7.509c-0.399,1.101-1.433,1.844-2.605,1.867
				c-3.036,0.059-5.179,0.691-5.732,1.686c-0.549,0.992,0.209,2.846,0.549,3.408c0.802,1.342,0.367,3.079-0.971,3.884
				c-1.346,0.818-3.076,0.376-3.885-0.971c-0.301-0.501-2.878-5.022-0.644-9.061c1.445-2.613,4.402-4.125,8.804-4.512
				c1.757-3.179,6.518-9.472,16.672-9.472c8.709,0,13.25,4.86,15.128,8.875c0.995-0.051,2.172,0.083,3.34,0.648
				c2.361,1.125,3.916,3.509,4.627,7.079c0.276,1.381,0.039,3.091-0.623,5.045c13.565,8.145,15.689,24.406,15.776,25.133
				C149.865,73.354,148.476,121.487,119.719,121.487 M91.329,86.315c1.626,7.264,8.252,29.519,28.39,29.519
				c23.253,0,24.516-44.111,24.533-44.652c-0.032,0-1.927-13.462-12.571-20.261C124.65,63.061,107.136,79.749,91.329,86.315"/>
			<path clip-path="url(#SVGID_4_)" fill="#EA5843" d="M141.495,126.478c-4.54,0-10.005-1.777-16.004-7.319
				c-1.149-1.058-1.22-2.851-0.163-3.995c1.061-1.168,2.846-1.225,3.999-0.158c5.969,5.511,11.742,7.106,17.118,4.746
				c10.218-4.478,17.861-22.559,17.861-35.741c0-20.237-7.706-43.74-14.963-55.58c-6.688-10.944-19.526-9.182-20.079-9.096
				c-0.623,0.076-1.2-0.016-1.721-0.284c-9.017-4.639-17.683-5.666-25.768-3.06c-15.188,4.923-23.498,21.046-23.577,21.208
				C70.847,49.216,67.76,63.156,67.76,84.01c0,13.182,7.635,31.263,17.852,35.741c5.393,2.352,11.149,0.757,17.118-4.746
				c1.137-1.067,2.93-1.004,4,0.158c1.058,1.145,0.986,2.937-0.163,3.995c-9.676,8.946-17.983,8.061-23.222,5.78
				c-12.708-5.567-21.247-25.655-21.247-40.929c0-21.975,3.339-36.795,11.16-49.567c0.265-0.549,9.365-18.196,26.771-23.838
				c9.326-3.012,19.187-2.002,29.329,3.024c3.759-0.339,17.214-0.584,24.818,11.848c7.84,12.811,15.784,37.032,15.784,58.532
				c0,15.274-8.535,35.362-21.247,40.929C146.715,125.807,144.283,126.478,141.495,126.478"/>
			<path clip-path="url(#SVGID_4_)" fill="#EA5843" d="M151.326,177.232c-1.563,0-2.827-1.263-2.827-2.826v-34
				c0-1.563,1.264-2.826,2.827-2.826s2.827,1.263,2.827,2.826v34C154.153,175.97,152.889,177.232,151.326,177.232"/>
			<path clip-path="url(#SVGID_4_)" fill="#EA5843" d="M178.141,177.232H54.448c-1.564,0-2.831-1.263-2.831-2.826v-15.255
				c0-18.255,15.294-23.301,23.38-23.411h82.551c8.125,0.11,23.419,5.156,23.419,23.411v15.255
				C180.967,175.969,179.704,177.232,178.141,177.232 M57.278,171.579h118.036v-12.428c0-17.3-17.078-17.742-17.805-17.758H75.036
				c-0.679,0.016-17.758,0.56-17.758,17.758V171.579z"/>
			<path clip-path="url(#SVGID_4_)" fill="#EA5843" d="M81.254,177.232c-1.563,0-2.831-1.263-2.831-2.826v-34
				c0-1.563,1.268-2.826,2.831-2.826s2.83,1.263,2.83,2.826v34C84.084,175.97,82.817,177.232,81.254,177.232"/>
			<path clip-path="url(#SVGID_4_)" fill="#EA5843" d="M138.89,157.682H93.698c-1.563,0-2.83-1.263-2.83-2.827v-14.449
				c0-1.563,1.267-2.826,2.83-2.826c1.564,0,2.831,1.263,2.831,2.826v11.623h39.535v-12.294c0-1.562,1.264-2.826,2.826-2.826
				c1.563,0,2.827,1.263,2.827,2.826v15.121C141.717,156.419,140.453,157.682,138.89,157.682"/>
		</g>
	</g>
</g>
<g display="none">
	<g display="inline">
		<defs>
			<rect id="SVGID_5_" x="9.72" y="-14.99" width="213.396" height="213.396"/>
		</defs>
		<clipPath id="SVGID_6_">
			<use xlink:href="#SVGID_5_"  overflow="visible"/>
		</clipPath>
		<g clip-path="url(#SVGID_6_)">
			<defs>
				<rect id="SVGID_7_" x="9.72" y="-14.99" width="213.396" height="213.396"/>
			</defs>
			<clipPath id="SVGID_8_">
				<use xlink:href="#SVGID_7_"  overflow="visible"/>
			</clipPath>
			<path clip-path="url(#SVGID_8_)" fill="#EA5843" d="M115.502,176.908c-47.066,0-85.36-38.294-85.36-85.36
				s38.294-85.36,85.36-85.36s85.36,38.294,85.36,85.36S162.568,176.908,115.502,176.908 M115.502,13.028
				c-43.298,0-78.52,35.222-78.52,78.52c0,43.297,35.222,78.529,78.52,78.529c43.297,0,78.529-35.231,78.529-78.529
				C194.031,48.25,158.799,13.028,115.502,13.028"/>
			<path clip-path="url(#SVGID_8_)" fill="#EA5843" d="M113.141,131.306H90.464V46.571h34.268c21.561,0,33.524,13.08,33.524,30.404
				s-11.963,30.032-33.524,30.032h-11.591V131.306z M123.606,88.07c7.728,0,11.84-4.122,11.84-11.095
				c0-6.983-4.112-11.219-11.84-11.219h-10.465V88.07H123.606z"/>
		</g>
	</g>
</g>
<g>
	<g>
		<defs>
			<rect id="SVGID_9_" x="-5.884" y="-30.792" width="243" height="243"/>
		</defs>
		<clipPath id="SVGID_10_">
			<use xlink:href="#SVGID_9_"  overflow="visible"/>
		</clipPath>
		<g clip-path="url(#SVGID_10_)">
			<defs>
				<rect id="SVGID_11_" x="-5.884" y="-30.792" width="243" height="243"/>
			</defs>
			<clipPath id="SVGID_12_">
				<use xlink:href="#SVGID_11_"  overflow="visible"/>
			</clipPath>
			<path clip-path="url(#SVGID_12_)" fill="#EA5843" d="M183.441,174.066h-15.568c-1.834,0-3.316-1.482-3.316-3.316v-42.008
				c0-0.362,0.056-0.732,0.177-1.075c0.203-0.592,5.019-14.513,13.252-24.57c7.084-8.668,4.742-24.389,4.714-24.547
				c-0.814-3.246-4.862-21.204,0.916-28.108c1.733-2.069,4.159-3.037,6.928-2.88c5.77,0.357,9.91-0.82,12.382-3.538
				c2.732-3.011,3.76-8.118,3.056-15.222c-9.474,1.39-16.503-2.898-23.366-7.066c-6.279-3.807-12.771-7.747-21.624-7.747
				c-16.884,0-18.856,13.15-19.681,30.339c-0.759,15.527-9.344,28.307-34.048,50.655c-22.32,20.189-29.409,59.642-29.882,66.569
				c-0.32,4.724,7.715,5.89,7.798,5.909l30.359-0.027c12.632,0,21.495-13.716,21.495-21.135c0-6.89-4.65-16.605-14.976-16.605
				c-10.026,0-17.152,12.16-17.222,12.28c-0.916,1.603-2.95,2.13-4.529,1.232c-1.588-0.916-2.144-2.935-1.232-4.528
				c0.362-0.64,9.086-15.615,22.982-15.615c13.531,0,21.606,11.808,21.606,23.236c0,11.179-11.808,27.766-28.126,27.766H84.753
				c-5.376-0.658-14.591-4.187-13.993-12.957c0.5-7.372,8.089-49.372,32.048-71.053c23.177-20.963,31.216-32.58,31.873-46.046
				c0.658-13.712,1.76-36.661,26.311-36.661c10.715,0,18.337,4.63,25.071,8.714c7.408,4.492,13.216,8.044,21.81,5.543
				c0.908-0.255,1.899-0.125,2.695,0.38c0.806,0.509,1.352,1.338,1.509,2.279c1.779,11.025,0.352,19.175-4.231,24.223
				c-3.909,4.288-9.947,6.201-17.727,5.696c-0.787-0.056-1.158,0.213-1.416,0.519c-2.658,3.176-1.278,15.327,0.5,22.542
				c0.176,1.037,2.899,19.069-6.075,30.057c-6.659,8.131-11.022,19.504-11.938,22.015v38.119h12.253
				c1.834,0,3.315,1.481,3.315,3.315C186.756,172.584,185.274,174.066,183.441,174.066"/>
			<path clip-path="url(#SVGID_12_)" fill="#EA5843" d="M149.405,174.066h-33.868c-1.834,0-3.32-1.482-3.32-3.316
				c0-1.834,1.486-3.315,3.32-3.315h33.868c1.835,0,3.316,1.481,3.316,3.315C152.721,172.584,151.24,174.066,149.405,174.066"/>
			<path clip-path="url(#SVGID_12_)" fill="#EA5843" d="M53.987,173.9c-16.1,0-32.817-9.252-33.882-9.854
				c-1.594-0.898-2.163-2.917-1.264-4.52c0.898-1.593,2.931-2.167,4.519-1.259c0.347,0.184,34.891,19.319,48.02,1.12
				c1.07-1.481,3.149-1.806,4.63-0.75c1.486,1.074,1.825,3.149,0.75,4.64C70.995,171.27,62.577,173.9,53.987,173.9"/>
			<path clip-path="url(#SVGID_12_)" fill="#EA5843" d="M148.248,56.411c-3.306,0-5.613-1.278-7.075-2.542
				c-6.891-5.905-5.696-20-5.539-21.588c0.185-1.811,1.704-3.093,3.631-2.968c1.824,0.181,3.158,1.806,2.982,3.631
				c-0.463,4.676,0.009,13.123,3.241,15.892c0.742,0.629,2.065,1.38,4.89,0.634c11.502-2.982,8.113-20.773,8.075-20.954
				c-0.351-1.796,0.815-3.541,2.612-3.898c1.861-0.362,3.547,0.814,3.908,2.611c1.649,8.326,1.075,25.038-12.928,28.668
				C150.657,56.259,149.396,56.411,148.248,56.411"/>
		</g>
	</g>
</g>
</svg>
