<?xml version="1.0" encoding="utf-8"?>
<!-- Generator: Adobe Illustrator 17.0.0, SVG Export Plug-In . SVG Version: 6.00 Build 0)  -->
<!DOCTYPE svg PUBLIC "-//W3C//DTD SVG 1.1//EN" "http://www.w3.org/Graphics/SVG/1.1/DTD/svg11.dtd">
<svg version="1.1" id="Layer_1" xmlns="http://www.w3.org/2000/svg" xmlns:xlink="http://www.w3.org/1999/xlink" x="0px" y="0px"
	 width="403.333px" height="136px" viewBox="0 0 403.333 136" enable-background="new 0 0 403.333 136" xml:space="preserve">
<g>
	<g>
		<g>
			<path fill="#F7977A" d="M5.113,48.18c2.333-8.764,6.935-17.051,13.808-23.926c20.803-20.807,54.537-20.807,75.346,0
				c6.868,6.865,11.466,15.14,13.801,23.891L88.732,68.569c2.153-10.449-0.828-21.74-8.935-29.849
				c-12.813-12.814-33.592-12.814-46.408,0c-7.576,7.578-10.674,17.936-9.29,27.79L5.113,48.18z"/>
			<path fill="#034656" d="M79.794,79.731c12.817-12.816,12.817-33.592,0-46.407c-12.813-12.815-33.592-12.815-46.408,0
				c-12.813,12.815-12.813,33.591,0,46.407L18.918,94.204c-20.804-20.809-20.804-54.542,0-75.348
				c20.803-20.806,54.538-20.806,75.346,0c20.806,20.806,20.806,54.539,0,75.348L79.794,79.731z"/>
			<polygon fill="#F7977A" points="39.358,85.996 24.557,100.379 57.054,132.695 88.623,100.379 74.241,85.996 56.731,103.311 			
				"/>
		</g>
	</g>
	<g>
		<path fill="#034656" d="M158.333,46.783c10.338,0,16.922,4.976,16.922,12.805c0,5.413-3.029,9.731-7.902,11.267
			c5.796,1.245,9.482,6.293,9.482,12.95c0,8.708-6.848,14.195-17.712,14.195h-22.586V46.783H158.333z M148.192,67.271h9.482
			c3.424,0,5.598-2.049,5.598-5.342c0-3.291-2.174-5.195-5.598-5.195h-9.482V67.271z M148.192,87.976h9.482
			c4.347,0,7.047-2.122,7.047-5.78c0-3.438-2.7-5.56-7.047-5.56h-9.482V87.976z"/>
		<path fill="#034656" d="M219.909,71.662v25.754h-11.128v-4.536c-2.305,3.365-6.058,5.121-10.866,5.121
			c-7.571,0-12.18-5.121-12.18-12.365c0-7.464,4.806-11.855,13.629-11.926h9.351v-0.586c0-3.879-2.305-6.219-6.914-6.219
			c-2.964,0-6.848,1.169-10.602,3.291l-3.228-8.341c5.532-2.852,10.537-4.462,16.462-4.462
			C214.18,57.393,219.843,62.735,219.909,71.662z M208.715,84.026v-3.514h-7.178c-3.424,0-5.137,1.318-5.137,4.244
			c0,2.854,1.844,4.683,5.006,4.683C204.962,89.439,207.991,87.246,208.715,84.026z"/>
		<path fill="#F7977A" d="M244.674,44.606c0,3.95-2.501,6.731-5.991,6.731c-3.49,0-5.993-2.781-5.993-6.731
			c0-3.879,2.503-6.66,5.993-6.66C242.173,37.946,244.674,40.727,244.674,44.606z"/>
		<rect x="232.954" y="58.564" fill="#034656" width="11.325" height="39.437"/>
		<path fill="#034656" d="M281.29,95.293c-2.569,1.683-6.058,2.708-9.482,2.708c-6.848,0-11.787-4.317-11.787-12.512V68.075h-4.939
			v-8.268h4.939V48.832h11.327v10.902h9.284v8.341h-9.284v15.44c0,3.073,1.185,4.389,3.291,4.315c1.185,0,2.7-0.512,4.413-1.316
			L281.29,95.293z"/>
		<path fill="#034656" d="M303.681,87.246v10.755h-11.39V43.71h11.39v28.682l11.722-13.828h12.907L315.272,73.71l13.433,24.291
			h-13.498L307.5,82.782L303.681,87.246z"/>
		<path fill="#034656" d="M398.575,73.124v24.876h-11.327V76.636c0-4.683-2.37-7.535-6.124-7.535
			c-4.28,0.145-6.914,4.024-6.914,9.365v19.535h-11.39V76.636c0-4.683-2.305-7.535-6.058-7.535
			c-4.347,0.145-7.047,4.024-7.047,9.365v19.535h-11.325V58.564h11.325v6.511c2.438-4.683,6.519-7.023,11.722-7.096
			c5.794,0,10.074,3.365,11.853,8.927c2.305-5.854,6.65-8.853,12.512-8.927C393.571,57.979,398.575,63.906,398.575,73.124z"/>
	</g>
</g>
<g>
</g>
<g>
</g>
<g>
</g>
<g>
</g>
<g>
</g>
<g>
</g>
</svg>
